<?xml version="1.0" standalone="no"?>
<!DOCTYPE svg PUBLIC "-//W3C//DTD SVG 1.1//EN" "http://www.w3.org/Graphics/SVG/1.1/DTD/svg11.dtd" >
<svg xmlns="http://www.w3.org/2000/svg">
<metadata>
This is a custom SVG webfont generated by Font Squirrel.
Copyright   : Copyright c Typographer Mediengestaltung 2002 All rights reserved Designed by William Morris in 1893 Digitized and hinted by Dieter Steffmann Kreuztal
Designer    : Dieter Steffmann
Foundry URL : httpwwwsteffmannde
</metadata>
<defs>
<font id="MorrisRomanBlack" horiz-adv-x="819" >
<font-face units-per-em="2048" ascent="1638" descent="-410" />
<missing-glyph horiz-adv-x="655" />
<glyph unicode=" "  horiz-adv-x="655" />
<glyph unicode="&#x09;" horiz-adv-x="655" />
<glyph unicode="&#xa0;" horiz-adv-x="655" />
<glyph unicode="!" horiz-adv-x="417" d="M74 143q104 143 143 144q37 0 82 -62q49 -61 49 -98q0 -16 -51 -74q-45 -53 -70 -65q-147 112 -153 155zM78 289l26 301q14 152 15 254q0 100 -29 397l238 98q0 -469 -45 -766q-16 -92 -25 -116q-51 -16 -96 -74q-72 -86 -84 -94z" />
<glyph unicode="&#x22;" horiz-adv-x="645" d="M18 1147q0 12 43 119l50 123l18 16q10 -6 53 -59q41 -49 43 -64q0 -27 -63 -117l-80 -114l-37 45q-25 37 -27 51zM295 1137q0 14 43 118l51 125l17 15q14 -8 55 -60q39 -45 43 -63q0 -20 -66 -117l-78 -115q-53 48 -65 97z" />
<glyph unicode="#" horiz-adv-x="649" d="M90 1182q266 150 342 149q37 0 90 -71.5t53 -110.5q0 -14 -143 -113l-43 78q-4 8 -43 68h-18v-33l32 -229v-547q0 -45 -4 -373l-123 -2q-31 0 -79 6v916q0 49 -33 135q-31 88 -31 127z" />
<glyph unicode="$" horiz-adv-x="876" d="M45 752q0 145 89 236t243 112v114h59v-114h21q90 0 211 -31q45 -10 55 -10q18 0 43 8q0 -2 -8 -44t-8 -60q0 -86 16 -162h-27q-25 94 -118 151q-84 53 -185 60v-361q115 -6 178 -22q88 -27 143.5 -101.5t55.5 -171.5q0 -160 -108.5 -256t-268.5 -102v-129h-59v129 q-61 0 -115 6q-115 16 -121 16q-20 0 -32 -2q2 12 2 70q0 84 -15 178h27q18 -92 115 -147q68 -39 139 -43v379q-219 16 -291 131q-41 66 -41 166zM170 823q0 -162 207 -168v357q-207 -25 -207 -189zM436 70h19q90 0 151.5 57t61.5 141q0 182 -232 183v-381z" />
<glyph unicode="%" horiz-adv-x="970" d="M37 784q0 63 12 125l205 133q72 -8 127 -41q115 -72 115 -219q0 -76 -31 -155q-133 -68 -182 -99q-96 18 -144 45q-102 55 -102 211zM127 53l745 1004l37 -31l-747 -997zM160 821q0 -188 188 -207q18 86 19 142q0 182 -170 182h-23q-14 -56 -14 -117zM479 242q0 72 8 123 l205 133q242 -27 242 -260q0 -70 -29 -156q-2 0 -12 -5t-33 -18l-45 -24l-70 -35l-22 -10q-129 16 -182 65q-62 60 -62 187zM598 276q0 -184 188 -206q20 90 21 141q0 184 -170 184h-25q-14 -56 -14 -119z" />
<glyph unicode="&#x26;" horiz-adv-x="1277" d="M0 457q0 145 238 297q88 57 96 57q-211 113 -211 240q0 137 141 221q121 68 271 67q78 0 284.5 -81.5t306.5 -81.5q-127 -102 -202 -103q-82 0 -199 86t-190 86q-178 0 -179 -213q0 -123 328 -295l-35 -86l-69 21q-117 -66 -185 -137q-100 -100 -100 -198.5t70 -162.5 q72 -66 167 -65q125 0 202 70.5t77 187.5v383h250v-385q0 -193 139 -289l-43 -64q-45 39 -121 51q-33 4 -55 5q-61 0 -205 -35q-131 -33 -205 -33q-190 0 -372 131q-199 142 -199 326z" />
<glyph unicode="'" horiz-adv-x="417" d="M29 1147q0 18 41 119l51 123l18 16q10 -10 54 -62q41 -51 40 -61q0 -29 -61 -117l-78 -114q-53 47 -65 96z" />
<glyph unicode="(" horiz-adv-x="516" d="M-14 616q0 260 100 437q88 156 313 321q-109 -184 -155 -338q-51 -162 -51 -366q0 -137 34 -273q20 -82 84 -237q74 -184 88 -236q-205 147 -299 293q-114 180 -114 399z" />
<glyph unicode=")" horiz-adv-x="516" d="M37 -92q20 84 85.5 241.5t86.5 233.5q35 127 35 274q0 209 -51 369q-45 145 -156 336q217 -160 313 -324q104 -182 105 -436q0 -223 -119 -399q-94 -143 -299 -295z" />
<glyph unicode="*" horiz-adv-x="704" d="M82 858q43 66 41 139l178 -82l-18 199q31 -14 75 -14q37 0 68 8l-29 -195l185 84v-14q0 -70 39 -127l-201 -35l133 -153q-57 -12 -115 -82l-94 168l-92 -160q-47 59 -117 84l139 143z" />
<glyph unicode="+" d="M29 526v92h331v320h97v-320h334v-92h-334v-321h-97v321h-331z" />
<glyph unicode="," horiz-adv-x="417" d="M29 -59q0 12 41 112l51 125l18 15q8 -6 51 -58q43 -53 43 -65q0 -25 -61 -113l-78 -115q-18 14 -41.5 48.5t-23.5 50.5z" />
<glyph unicode="-" horiz-adv-x="698" d="M2 397q-2 -12 11.5 -23.5t25.5 -11.5q4 0 6 3h6q55 57 117 57h209q76 0 106 -8l58 -15l77 209q2 3 2 7q0 7 -9 12q-13 8 -27 8q-12 0 -19 -8q-55 -43 -110 -43h-205q-88 0 -168 26z" />
<glyph unicode="." horiz-adv-x="542" d="M27 211l198 186l146 -186l-160 -211z" />
<glyph unicode="/" horiz-adv-x="536" d="M53 -233l369 1335l57 -19l-364 -1333z" />
<glyph unicode="0" horiz-adv-x="886" d="M6 643q0 360 342 561q68 41 94 45q152 0 275 -282q102 -240 102 -410q0 -201 -86 -313q-61 -78 -256 -191l-47 -39q-29 -20 -55 -22q-170 0 -281 254q-88 202 -88 397zM115 729q0 -137 127 -287q127 -147 264 -147q197 0 196 192q0 143 -122 295q-129 158 -271 158 q-86 0 -140 -59.5t-54 -151.5z" />
<glyph unicode="1" horiz-adv-x="450" d="M-23 1022l338 215h11l-13 -625q-1 -41 0 -80q0 -293 39 -540h-332q68 229 68 508q0 209 -12 272q-17 88 -99 250z" />
<glyph unicode="2" horiz-adv-x="993" d="M-10 -2v51q131 104 321 330q225 262 226 371q0 164 -222 163q-104 0 -204 -57v33l100 201q78 152 127 151q170 0 301 -106q141 -115 141 -279q0 -115 -80 -231q-53 -80 -172 -183q-152 -135 -184 -168h55q31 0 228 31q152 23 235 23h29l33 -4q-211 -326 -285 -326h-649z " />
<glyph unicode="3" horiz-adv-x="993" d="M0 342h45q152 -147 324 -147q90 0 174 65q82 68 82 160q0 109 -105 149q-53 20 -201 21v108q92 0 173 29q104 39 104 119q0 59 -84 96q-68 31 -135 31q-94 0 -189 -43v24q0 35 56 164q68 156 125 156q127 0 278 -111q158 -117 158 -241q0 -51 -45 -115l-70 -102l144 -113 q80 -63 79 -156q0 -174 -141 -307q-139 -131 -317 -131q-129 0 -289 104q-166 111 -166 240z" />
<glyph unicode="4" horiz-adv-x="1011" d="M0 377l784 837h47v-618h111l-8 -129l-103 -29l-8 -168q-2 -32 -1 -62q0 -120 26 -208h-238l-4 428zM268 537l338 28l21 318z" />
<glyph unicode="5" horiz-adv-x="1019" d="M12 256q31 37 92 82q55 43 99 63l360 -233q59 18 102.5 77.5t43.5 121.5q0 137 -244 208q-170 49 -346 50v30q0 16 45 140l57 161l41 148q20 76 47 102q12 12 42 13.5t34 5.5l-66 14q70 0 218 -6l217 -8q29 -1 54 -1q101 0 138 13v-18q0 -219 -180 -220h-424 q-59 -76 -59 -141q57 -23 241 -53q408 -63 408 -344q0 -125 -197 -287q-133 -111 -313 -197z" />
<glyph unicode="6" horiz-adv-x="927" d="M-27 504v166q0 133 136 293q109 127 251 221q158 106 277 106l37 -35v-22q-113 -37 -277 -199q-184 -182 -176 -282l2 -25q27 8 158 102q121 84 131 84q131 0 246 -139q106 -131 106 -270q0 -152 -180 -340q-174 -180 -295 -180q-104 0 -264 206q-152 201 -152 314z M231 578q0 -104 76 -213q66 -96 160 -164q45 -33 63 -35q49 0 88 88q35 80 35 131q0 117 -67 209q-74 102 -189 102q-61 0 -108 -28q-58 -33 -58 -90z" />
<glyph unicode="7" horiz-adv-x="1019" d="M4 905v53q0 12 19 50l24 49l29 119q14 59 67 75q14 4 109 9l629 8q45 0 45 -31q0 -18 -323.5 -610t-352.5 -615h-227v25l669 997q-44 11 -72 11q-5 0 -10 -1l-229 -10q-150 -6 -238 -55q-31 -18 -61 -41q-45 -33 -78 -33z" />
<glyph unicode="8" horiz-adv-x="978" d="M4 346q0 72 107 152l163 123l-147 120q-98 80 -98 140q0 57 178 209q182 152 242 151q70 0 245 -149q178 -150 178 -211q0 -49 -108 -146l-107 -92q0 -12 64 -57q80 -55 119 -99q61 -66 61 -125q0 -70 -188 -227q-188 -154 -264 -153.5t-260.5 147.5t-184.5 217zM233 422 q0 -43 140 -139l180 -121q18 0 68 49q51 49 51 70q0 29 -152 155q-141 117 -160 117q-20 0 -73 -55q-50 -49 -54 -76zM258 954q0 -14 139 -125q123 -98 172 -129l49 56q39 41 39 57q0 23 -137 139q-133 119 -160 119q-16 0 -59 -49.5t-43 -67.5z" />
<glyph unicode="9" horiz-adv-x="860" d="M-14 750q0 129 151 329q160 209 283 209q10 0 76 -49q137 -100 217 -254t80 -317q0 -276 -205 -463q-61 -55 -191 -123q-156 -82 -200 -82q-29 16 -31 43q8 12 12 14l137 95q66 45 123 122q45 63 76 123l49 144h-18q-10 0 -125 -90q-111 -90 -135 -93q-104 0 -207 146 q-92 131 -92 246zM174 885q0 -205 168 -287q39 -20 53 -20q27 0 99 30q41 19 55 31t14 28q0 203 -217 394q-37 33 -53 37q-39 0 -82 -88q-37 -76 -37 -125z" />
<glyph unicode=":" horiz-adv-x="417" d="M74 143q104 143 143 144q37 0 82 -62q49 -61 49 -98q0 -16 -51 -74q-45 -53 -70 -65q-147 112 -153 155zM74 479q0 35 53 99q53 61 90 71q78 -96 131 -170q0 -23 -59 -92q-59 -63 -86 -68l-10 11q-8 8 -58 63q-57 66 -61 86z" />
<glyph unicode=";" horiz-adv-x="417" d="M25 479q0 35 143 178q80 -102 131 -178q0 -23 -59 -92q-59 -63 -86 -68l-11 11q-8 8 -57 63q-57 66 -61 86zM29 -59q0 12 41 112l51 125l18 15q8 -6 51 -58q43 -53 43 -65q0 -25 -61 -113l-78 -115q-18 14 -41.5 48.5t-23.5 50.5z" />
<glyph unicode="&#x37e;" horiz-adv-x="417" d="M25 479q0 35 143 178q80 -102 131 -178q0 -23 -59 -92q-59 -63 -86 -68l-11 11q-8 8 -57 63q-57 66 -61 86zM29 -59q0 12 41 112l51 125l18 15q8 -6 51 -58q43 -53 43 -65q0 -25 -61 -113l-78 -115q-18 14 -41.5 48.5t-23.5 50.5z" />
<glyph unicode="&#x3c;" d="M53 471v160l711 354v-186l-512 -248l512 -248v-184z" />
<glyph unicode="=" d="M29 408v90h762v-90h-762zM29 647v90h762v-90h-762z" />
<glyph unicode="&#x3e;" d="M55 119v186l512 246l-512 248v186l711 -356v-158z" />
<glyph unicode="?" horiz-adv-x="872" d="M-27 1059q-1 8 -1 15q0 99 147 200q147 98 260 98q147 0 264 -98q125 -100 125 -248q0 -76 -20.5 -121t-77.5 -94q-49 -43 -78 -78q-29 -37 -76 -256q-57 -20 -178 -170q0 55 6 123q14 150 14 219q20 55 103 158q70 88 69 184q0 78 -75 139q-78 61 -154 62 q-152 0 -291 -133h-37zM283 143q106 143 145 144q35 0 80 -62q47 -63 47 -98q0 -16 -51 -74q-45 -51 -66 -65q-155 118 -155 155z" />
<glyph unicode="@" horiz-adv-x="1128" d="M23 711q0 358 196 555q115 115 178 114q29 0 88.5 -12t89.5 -12q39 0 105 14q76 16 104 16q78 0 172 -106q150 -168 150 -420q0 -352 -227 -459q-45 -21 -60 -20h-2l-14 2l-76 4l2 -2q-41 -4 -72 -4h-12q-27 0 -27 14q0 10 25 60q8 27 10 73l4 134l2 118q1 27 1 49 q0 44 -3 68q-12 84 -63 84q-55 0 -86 -78q-41 -104 -41 -229q0 -147 80 -148q18 0 39 4l8 2q16 0 16 -34q0 -125 -112 -125q-100 0 -150 84q-41 72 -41 176q0 195 113 325q84 98 176 99h20q10 0 49.5 -5t51.5 -5q6 0 38.5 5t37.5 5l20 2q27 0 27 -25q0 -18 -15 -59l-18 -64 q0 -84 -2 -102q-8 -100 -8 -195q0 -143 53 -143q55 0 86 121q20 74 20 160q0 203 -106 354q-121 172 -311 172q-186 0 -281 -154q-80 -125 -80 -323q0 -430 340 -604q88 -45 148 -45q35 0 127 38q14 6 24 7q27 0 27 -27q0 -29 -94 -92q-133 -88 -203 -88q-137 0 -281 127 q-243 225 -243 594z" />
<glyph unicode="A" horiz-adv-x="1284" d="M4 2q0 4 66 113q68 106 75 139q121 487 121 981h-229v47q37 25 129 25h1005v-45q-103 -103 -103 -331q0 -17 1 -34l8 -283q0 -127 8 -323q8 -156 99 -301h-672v41l90 -2q9 0 19 -1q244 0 243 158v363h-598q0 -147 -45 -348q-57 -258 -153 -258q-64 0 -64 59zM313 752h535 v233q0 106 -76 232h-414q0 -37 -24 -248l-21 -97v-120z" />
<glyph unicode="B" horiz-adv-x="1245" d="M12 1071v47q39 8 328 119q205 80 332 80q139 0 252 -68q133 -80 133 -211q0 -86 -70 -141l-131 -102l219 -162q121 -90 121 -225q0 -154 -203 -304q-188 -137 -350 -137q-63 0 -200.5 29t-200.5 29q-78 0 -115 -17q-20 -6 -100 -41v43l53 92q55 94 55 156v582 q0 176 -123 231zM358 967l2 -164l5 -162q4 0 10 2q8 2 10 2q8 0 12 -4q68 53 164 109q135 78 182 124q84 84 84 164q0 74 -55 130.5t-129 56.5q-109 0 -197 -72q-92 -77 -88 -186zM365 471q0 -164 63 -270q76 -131 229 -131q88 0 177 71q86 72 86 160q0 68 -121 205 q-119 135 -187 135q-37 0 -143 -70q-104 -71 -104 -100z" />
<glyph unicode="C" horiz-adv-x="1282" d="M-2 629q0 283 195 489q197 205 479 205q289 0 477 -201q-123 -113 -209 -170q-100 248 -313 248q-178 0 -289 -182q-96 -158 -96 -342q0 -225 125 -369q131 -156 350 -155q147 0 254 55q55 31 129 96q55 49 110 49q-43 -174 -219 -276q-156 -88 -348 -88q-268 0 -457 186 q-188 189 -188 455z" />
<glyph unicode="D" horiz-adv-x="1290" d="M12 1094v43l291 116q211 84 291 84q135 0 303 -143q137 -113 233 -256q111 -164 111 -279q0 -135 -129 -311q-109 -150 -244 -246q-164 -115 -290 -114q-51 0 -162 28q-109 29 -158 29q-33 0 -102.5 -20.5t-100.5 -24.5q0 31 45 164q29 88 33 108q16 70 17 111l6 446 q1 183 -144 265zM379 367q0 -106 53 -179q57 -82 162 -82q150 0 260 209q96 182 96 344q0 365 -272 527q-72 43 -100 43q-76 0 -138 -70q-61 -68 -61 -145v-647z" />
<glyph unicode="E" horiz-adv-x="1349" d="M12 635q0 236 213 465q215 227 451 227q111 0 209 -39q61 -25 155 -76q66 -37 95 -41l108 48v-62q-111 -104 -268 -201q-117 250 -291 250q-184 0 -287 -153q-90 -137 -90 -328q270 43 473 43q80 0 238 6q141 8 239 8l-155 -174q-104 -113 -171 -113q-5 0 -9 1l-285 45 q-225 35 -297 34q-16 0 -33 -4v-106q0 -137 127 -264q129 -123 271 -123q117 0 213 102q94 102 94 223h250v-47q-8 -16 -56 -90q-193 -291 -530 -291q-274 0 -469 193q-195 195 -195 467z" />
<glyph unicode="F" horiz-adv-x="1071" d="M-10 545l4 88l-4 67h166v62l-68 233l627 340q100 -51 186 -145l156 -178q-35 -25 -256 -140q-94 217 -238 218q-51 0 -110 -60q-57 -57 -58 -112v-201h510q-35 -94 -35 -156q-63 0 -145 -8q-14 0 -147 -10l-40 -2q-77 0 -143 20q0 -338 -55 -541q-80 -293 -305 -415v33 q0 70 59 229q61 158 62 231v447h-166z" />
<glyph unicode="G" horiz-adv-x="1429" d="M4 631q0 289 248 499q238 201 530 201q283 0 557 -157q-59 -129 -163 -234l-123 141q-68 78 -137.5 108t-182.5 30q-217 0 -319 -172q-84 -143 -84 -371q0 -266 61 -397q88 -193 326 -193q170 0 262 129q82 113 82 291q0 100 -51 182q-59 98 -152 98q-37 0 -88 -45 q-53 -43 -53 -82q0 -37 108 -114q-123 -197 -153 -197q-55 0 -117 98q-53 88 -53 154q0 137 121 221q106 72 249 72q184 0 328 -117q156 -125 156 -303q0 -211 -221 -362q-193 -129 -418 -129q-164 0 -334 104q-156 98 -256 231q-123 160 -123 314z" />
<glyph unicode="H" horiz-adv-x="1245" d="M-18 -4l67 82q41 51 41 100v965q0 68 -90 123v49h950v-66h-405q-80 0 -129 -16q-47 -23 -97 -90v-219q59 10 224 108q158 94 190 94q137 0 291 -245q141 -227 141 -377q0 -158 -112 -332q-115 -174 -256 -240v64l121 178q47 72 47 221q0 190 -134 340q-141 158 -327 158 q-80 0 -185 -62v-591q0 -51 46 -244h-383z" />
<glyph unicode="I" horiz-adv-x="940" d="M6 1284v78h47l62 -23q68 -25 94 -24h545v-62q-96 0 -140 -12q-78 -23 -77 -96v-842q0 -143 2 -149q18 -86 90 -93q74 -6 155 -24l58 -12q20 -2 20 -43q0 -14 -24.5 -39t-38.5 -25q-27 0 -56 29l-38 51h-652l6 74l117 -2h6q119 0 119 80v933q0 94 -49 131q-25 18 -119 33 q-96 19 -127 37z" />
<glyph unicode="J" horiz-adv-x="1005" d="M-2 1012q8 104 108 211q98 106 203 106q57 0 178 -57q123 -55 182.5 -55t143.5 38q86 39 127 43l-31 -153q-16 -94 -16 -156l-2 -813q0 -143 -123 -295q-106 -127 -252 -211q-156 -88 -301 -88v49q57 59 215 146q133 72 180 145q74 115 74 369q0 219 -137 475 q-49 92 -49 104l32 33l148 133q96 90 119 135q-205 -127 -344 -127q-45 0 -131 31q-80 33 -125 33q-92 0 -158 -96h-41z" />
<glyph unicode="K" horiz-adv-x="1310" d="M12 1300l8 39h1178v-39q-262 -123 -526 -387q170 -143 254 -245q117 -141 182 -303q16 -37 123 -365h-383q76 84 76 186q0 133 -162 332q-168 203 -297 203q-2 -2 -14 -8l-43 -27l-56 -43v-442q0 -29 21 -103l26 -98h-362v45q80 53 80 109v995q-1 67 -105 151zM371 786 q84 45 204 160q141 135 142 201q0 131 -187 131q-160 0 -159 -143v-349z" />
<glyph unicode="L" horiz-adv-x="1150" d="M20 12q0 31 57.5 131.5t57.5 180.5v489q0 121 -67 195q-29 33 -29 43q0 45 297 174q295 127 371 127q137 0 202 -90l99 -201q-45 -31 -113 -57l-117 -48q-45 111 -84 166q-61 88 -149 88q-182 0 -183 -301q0 -43 9 -159l8 -132q2 -23 2 -57q0 -231 -119 -383q53 0 154 31 q98 33 155 33q145 0 215 -64q166 84 236 160h47v-47q0 -137 -117 -223q-102 -76 -245 -76q-47 0 -162 16q-106 18 -162 19q-115 0 -211 -21l-18 -16q-134 -1 -134 22z" />
<glyph unicode="M" horiz-adv-x="1548" d="M0 1323h299q86 0 172 -154q27 -51 139 -311q84 -190 152 -244l268 568q-31 47 -94 78v47h504v-47q-96 -66 -97 -125v-945q0 -121 127 -157l-8 -43h-479v43q125 61 125 188v817h-31l-379 -833h-30l-410 833h-31l6 -174l9 -297q2 -70 2 -134q0 -697 -221 -853v49 q0 14 55 262q29 137 35 170q20 109 20 175l4 358l-4 367q-4 152 -61 237q-47 68 -72 125z" />
<glyph unicode="N" horiz-adv-x="1402" d="M0 1247l299 76l416 -471q360 -406 389 -412v647q0 49 -4 87q-12 49 -51 61l-86 27v47h360v-47q-63 -12 -109 -48v-1259h-94q-6 80 -391 539q-387 463 -477 499l10 -628q0 -23 1 -46q0 -180 -30 -327q-29 -154 -122 -416h-50v47q0 66 39 189q57 184 58 249v680 q0 334 -39 410q-14 29 -56 57q-49 25 -63 39z" />
<glyph unicode="O" horiz-adv-x="1310" d="M0 674q0 215 209 440t424 225q236 0 422 -252q178 -233 178 -475q0 -184 -217 -407t-400 -223q-229 0 -426 233q-190 223 -190 459zM172 801q0 -219 182 -395q180 -174 406 -175q113 0 207 78q94 76 94 191q0 201 -187 393q-188 195 -387 194q-137 0 -223 -73 q-92 -76 -92 -213z" />
<glyph unicode="P" horiz-adv-x="1521" d="M14 1061v47q547 223 727 223q254 0 480 -215q223 -211 223 -467q0 -231 -211 -454.5t-442 -223.5q-127 0 -191 37q-39 25 -104 109q-70 94 -101 119v-472q0 -106 111 -143v-49h-350v1106q0 172 -11 223q-25 109 -131 160zM395 553q59 12 183 70q104 47 178 71v-67 q-96 -20 -154 -119q-49 -82 -49 -193q0 -66 59 -137q61 -68 129 -67q190 0 295 174q88 143 88 348q0 229 -96 387q-115 184 -332 184q-121 0 -211 -84t-90 -200v-367z" />
<glyph unicode="Q" horiz-adv-x="1363" d="M16 664q0 133 127 307q100 135 224 233q162 127 284 127q152 0 314 -135q139 -117 225 -268q96 -170 96 -310q0 -104 -86 -239q-72 -113 -170 -191q70 -76 107 -180l63 -180q33 -92 131 -162l-6 2q10 -33 23 -45h-80q-117 0 -264 162q-119 131 -173 260l-106 -45 q-74 -29 -107 -29q-147 0 -296 131q-123 104 -211 263q-95 168 -95 299zM190 776q0 -205 183 -381q180 -174 391 -174q129 0 229 92q100 94 101 224q0 199 -187 372q-182 168 -385 168q-141 0 -235 -82q-97 -84 -97 -219z" />
<glyph unicode="R" horiz-adv-x="1521" d="M6 1098v47q100 10 332 110q221 96 352 97q158 0 285 -78q143 -88 143 -242q0 -127 -123 -229l-223 -152q27 -20 223 -254q162 -193 222 -192l116 88q61 45 122 45h5l15 -37q-98 -158 -144 -209q-94 -104 -213 -104q-131 0 -223 129l-170 243q-92 133 -225 134 q-74 0 -107 -23q-39 -27 -39 -98q0 -111 17 -172q10 -35 47 -111q39 -76 49 -102h-447q18 31 57.5 82t39.5 88v764q0 106 -111 176zM373 571q184 88 295 179q182 145 182 268q0 88 -68 153q-68 68 -155 68q-82 0 -164 -63q-90 -68 -90 -144v-461z" />
<glyph unicode="S" horiz-adv-x="1200" d="M18 543q137 -59 277 -97l-37 -124q0 -109 123 -185q106 -68 225 -67q129 0 214 84t85 213q0 225 -174 225q-74 0 -207 -33q-131 -33 -205 -33q-98 0 -165 164q-55 133 -56 248q0 178 144 297q137 115 315 115q139 0 284.5 -90.5t196.5 -210.5q-133 -45 -227 -45 q-43 254 -270 253q-111 0 -180.5 -65.5t-69.5 -173.5q0 -90 57 -156q59 -66 146 -65q80 0 229 30l231 47q82 -55 131 -192q43 -121 43 -236q0 -209 -155 -340q-152 -131 -367 -131q-225 0 -407 172q-181 173 -181 396z" />
<glyph unicode="T" horiz-adv-x="1204" d="M-49 1040q23 123 135 205q115 86 238 86h770l-50 -147q-43 -89 -95 -89q-5 0 -11 1l-582 78q-80 -129 -80 -504q0 -215 95 -367q113 -180 313 -180q74 0 156 35q31 14 137 75q76 47 133 76q12 -16 16 -45q0 -98 -209 -196q-186 -84 -294 -84q-238 0 -426 184 q-188 188 -189 426q0 113 41 211q25 55 96 176q74 121 97 178q-78 0 -156 -43z" />
<glyph unicode="U" horiz-adv-x="1308" d="M0 680q0 119 86 299q76 160 166 268q-84 20 -129 21q-59 0 -109 -21l-2 70l66 20h1173l-84 -84q-49 -49 -49 -102v-803q0 -172 125 -205v-47l-84 -76q-57 -47 -90 -47q-55 0 -111 66q-49 57 -61 121q-41 -14 -156 -123q-86 -80 -176 -80q-109 0 -248 125 q-121 113 -213 274q-104 181 -104 324zM254 715q0 -170 94 -326q109 -182 266 -182q250 0 250 330v600l-37 120q-31 2 -94 9l-94 8q-11 1 -22 1q-158 0 -269 -198q-94 -167 -94 -362z" />
<glyph unicode="V" horiz-adv-x="1298" d="M4 1102v65q0 70 65.5 129.5t139.5 59.5q72 0 151 -80l111 -141q80 61 166 221h47q59 -45 137 -76q84 -33 150 -33q33 0 92 41q57 37 82 68h94l-131 -379l-92 -264l-55 -148q-231 -600 -291 -600q-47 0 -150 301q-156 469 -194 565q-123 303 -226 304q-43 0 -53 -7z M512 1053l238 -647l237 618q-170 0 -280 29l-7 4q-8 2 -22 9l-31 15q-39 20 -55 21q-19 0 -80 -49z" />
<glyph unicode="W" horiz-adv-x="1736" d="M12 662q0 166 162 329l266 275h-92q-41 0 -123 -19q-94 -23 -123 -24q-53 -6 -73 -6v110h1583v-47q-92 -74 -92 -158v-2l-4 -61v-72l-11 -348q-1 -37 -1 -72q0 -400 153 -428v-45l-182 -125q-111 0 -185 203l-100 -127q-49 -61 -143 -61q-80 0 -156 67l-117 135l-96 -131 q-53 -72 -133 -71q-90 0 -232 155q-98 106 -178 236q-123 195 -123 287zM332 709q0 -152 74.5 -293.5t201.5 -229.5q27 0 56 31l47 49q-150 313 -150 475q0 94 148 281q139 174 233 227q-117 23 -178 23q-195 0 -322 -189q-110 -169 -110 -374zM905 754q0 -186 33 -332 q51 -236 172 -236q53 0 111 95q55 86 55 143v715q0 47 -76 110q-133 0 -223 -188q-72 -153 -72 -307z" />
<glyph unicode="X" horiz-adv-x="1261" d="M-43 -2q168 33 322 264q121 184 182 400l-99 227q-113 260 -348 260q195 180 224 180q88 0 155 -61q43 -37 101 -133q66 -104 94 -140q20 29 100 203q68 147 123 148q20 0 80 -41q57 -39 94 -39q80 0 141 80h50q-33 -178 -129 -234q-63 -37 -254 -37q-18 0 -80 -121 q-61 -119 -62 -147q0 -109 113 -283q88 -139 194 -241q135 -129 234 -129v-50l-221 -155q-213 139 -285 219q-35 41 -80 151q-47 117 -84 168l-116 -239q-63 -133 -156 -213q-100 -88 -246 -88h-31q-6 2 -16 2v49z" />
<glyph unicode="Y" horiz-adv-x="1298" d="M-6 1143q0 86 67 137q72 53 156 53q127 0 170 -61l100 -144l95 123q74 96 94 97q16 0 124.5 -55.5t174.5 -55.5q119 0 172 96h78v-47l-502 -1360q0 -115 156 -114q59 0 147 47q104 55 143 63q-18 -125 -137 -219t-248 -94q-94 0 -156.5 62.5t-62.5 156.5q0 37 47 184 l-120 377q-100 307 -187 494q-113 246 -194 245l-111 -45zM518 1028q53 -88 121 -301q70 -225 117 -305l248 620q-94 -31 -150 -30q-59 0 -158 35q-29 10 -84 36q-31 0 -94 -55z" />
<glyph unicode="Z" horiz-adv-x="1273" d="M-10 45l819 999l-229 39q-145 25 -229.5 25t-168.5 -59q-104 -72 -147 -84q41 150 141 262q117 133 254 133q78 0 213 -39q137 -39 215 -39q49 0 154 41q99 37 128 37h3v-62l-811 -997l248 -49q162 -33 245 -33q70 0 185 82q111 76 147 141h49v-61l-121 -186 q-72 -109 -147 -158q-82 -51 -207 -51q-68 0 -217 28q-141 31 -211 31q-96 0 -176 -39l-78 -35q-34 29 -59 74z" />
<glyph unicode="[" horiz-adv-x="571" d="M86 -127q16 135 16 477v318q0 233 -12 426h182q6 -2 19 -2q123 0 209 10q-27 -59 -35 -98q-80 12 -162 12h-45q-18 -127 -18 -340v-307q0 -227 8 -318q0 -6 2 -21.5t4 -35.5l4 -41h51q-2 0 2 0t17.5 1t31 2t46 2t59.5 3q10 -53 24 -100q-76 12 -114 12h-289z" />
<glyph unicode="\" horiz-adv-x="649" d="M90 1182q266 150 342 149q37 0 90 -71.5t53 -110.5q0 -14 -143 -113l-43 78q-4 8 -43 68h-18v-33l32 -229v-547q0 -45 -4 -373l-123 -2h-13q-28 0 -66 6v916q0 49 -33 135q-31 88 -31 127z" />
<glyph unicode="]" horiz-adv-x="571" d="M70 1102q86 -10 211 -10q8 0 18 2h182q-12 -193 -12 -426v-318q0 -348 14 -477h-286q-37 0 -115 -12q10 31 22 100l158 -8h51l13 127q6 63 6 289v307q0 221 -19 340h-45q-80 0 -164 -12q-16 65 -34 98z" />
<glyph unicode="^" d="M37 594l268 502h209l268 -502h-170l-202 377l-203 -377h-170z" />
<glyph unicode="_" d="M0 -100h819v-115h-819v115z" />
<glyph unicode="`" horiz-adv-x="655" d="M305 1184l242 -164l41 115l-219 227z" />
<glyph unicode="a" horiz-adv-x="948" d="M10 391q0 182 137 320q41 43 168 143q137 113 162 117l199 -115l106 -53q78 -41 78 -68q0 -8 -34.5 -49t-37.5 -70l-14 -368q0 -23 8 -25l13 13q0 -29 45 -68q45 -41 49 -49l-166 -129q-133 72 -133 170l-35 14q-33 -33 -231 -174q-115 0 -220 141q-94 125 -94 250z M217 496q0 -90 62 -172q63 -94 149 -95q39 0 88 23q55 27 55 67v320q-23 25 -94 70q-72 49 -98 51q-55 0 -113 -107q-49 -87 -49 -157z" />
<glyph unicode="b" horiz-adv-x="903" d="M0 1196q0 12 102 68l125 67h41v-588h33l107 91q78 66 100 67q135 0 235 -147q96 -133 97 -273q0 -133 -166 -313q-164 -182 -295 -201l-293 228l-2 104l4 365v35q0 387 -88 497zM285 528q0 -147 30 -219q47 -109 174 -108q80 0 136.5 62.5t56.5 144.5q0 100 -74 188 q-74 92 -172 92q-151 0 -151 -160z" />
<glyph unicode="c" horiz-adv-x="675" d="M2 279v368q0 16 168 135q168 121 201 125l118 -71q49 -29 111 -84q-94 -150 -119 -150q-23 0 -104 68q-90 72 -133 71q-18 0 -32.5 -18t-14.5 -37v-346q0 -66 52 -112t122 -46q113 0 215 97h22v-43q0 -92 -104 -168q-102 -78 -195 -78q-117 0 -213 86q-94 88 -94 203z " />
<glyph unicode="d" horiz-adv-x="923" d="M-4 426q0 147 106 287q94 121 238 202q53 -8 164 -94h18v166q0 201 -55 230q55 41 129 79q98 54 119 54h4v-1084l59 -88q31 -31 99 -31v-36l-89 -70q-72 -55 -86 -55q-74 0 -178 147q-199 -143 -223 -147q-117 0 -219 164q-86 145 -86 276zM143 504q0 -84 72 -187 q76 -106 158 -106q57 0 103 30.5t46 80.5v213q0 61 -69 124q-70 66 -129 66q-70 0 -125.5 -73.5t-55.5 -147.5z" />
<glyph unicode="e" horiz-adv-x="655" d="M16 432q0 135 41 207q33 57 136 160l71 71q49 49 78 58q225 -152 250 -211l-375 -365q37 -80 98 -110q53 -25 148 -25l69 8q61 6 68 6q-117 -244 -160 -243q-186 0 -307 127q-117 129 -117 317zM164 522q0 -68 43 -90l176 174q-12 27 -52 59.5t-67 36.5q-43 0 -74 -71 q-26 -56 -26 -109z" />
<glyph unicode="f" horiz-adv-x="649" d="M10 760v135h80q63 0 64 25q0 49 -33 135q-31 88 -31 127q266 150 342 149q37 0 90 -71.5t53 -110.5q0 -14 -143 -113l-43 78q-4 8 -43 68h-18v-33l32 -229q4 -23 43 -21l52 2h88v-127q-16 -8 -39 -8l-29 4l-35 4q-45 0 -80 -22v-379q0 -45 -4 -373l-123 -2h-13 q-28 0 -66 6v756h-144z" />
<glyph unicode="g" horiz-adv-x="903" d="M14 -143q205 82 217 80q43 -242 209 -242q86 0 143.5 49t57.5 127q0 41 -29 137q-27 88 -26 142h-25q-20 -18 -233 -173q-113 0 -217 140q-96 133 -97 250q0 182 138 319q29 31 167 143q137 113 162 117q12 -8 201 -115l104 -53q78 -41 78 -67q0 -14 -37 -54 q-35 -41 -34 -65l-7 -342q-2 -61 31 -180q33 -113 33 -174q0 -137 -145 -234q-127 -88 -273 -88q-137 0 -256 78q-117 76 -162 205zM223 471q0 -86 60 -174q66 -92 149 -92q39 0 88 22q57 27 58 68v319q-23 20 -99 70q-78 49 -96 49q-55 0 -111 -104q-49 -92 -49 -158z" />
<glyph unicode="h" horiz-adv-x="903" d="M12 1196q170 94 248 143h47q-25 -225 -24 -350q0 -68 2 -88l4 -61v-25l-4 -33h22q12 0 96 68t97 68q143 0 252 -152q98 -139 98 -287q0 -295 -342 -538q-23 16 -49 47q117 137 143 182q66 109 66 227q0 121 -64 203q-68 92 -182 92q-129 0 -129 -80v-616l-125 -6 q-7 0 -15 -1q-31 0 -67 7v991q0 82 -37 146z" />
<glyph unicode="i" horiz-adv-x="544" d="M29 780l77 76q51 51 80 57q98 -61 140.5 -132.5t40.5 -182.5l-5 -197q-1 -27 0 -49q0 -93 13 -131q27 -88 133 -98v-31q-20 -16 -100 -63q-76 -43 -101 -47q-150 111 -149 157v496q0 47 -33 74l-64 36q-32 19 -32 35zM121 1124l4 37q6 59 29 78l82 37l126 72h25l4 -33 q0 -4 -4 -25l2 -65q4 -37 -49 -60q-4 -2 -84 -22l-131 -37z" />
<glyph unicode="j" horiz-adv-x="397" d="M-35 -369l78 88q78 88 78 197v637q0 61 -23 106q-20 35 -71 82q16 29 129 84q121 59 149 84h17l8 -897q2 -131 -103 -270q-111 -147 -237 -148zM90 1085v125q12 18 111 66q117 55 127 63h30v-168z" />
<glyph unicode="k" horiz-adv-x="899" d="M0 1184q254 162 299 162h2q-16 -109 -16 -129v-459h14q31 0 119 82q90 84 104 84q109 0 195 -125q78 -115 78 -226q0 -41 -68 -67l-100 -43q197 -227 196 -465h-221q0 139 -63 254q-78 139 -207 139q-54 0 -54 -82q0 -9 1 -18l4 -62l2 -45v-186h-199v1014q0 45 -86 172z M291 520q0 -41 24 -41h6q159 0 230 107l18 28q0 37 -38.5 70t-77.5 33q-162 0 -162 -197z" />
<glyph unicode="l" horiz-adv-x="450" d="M-10 1198v25l143 82q98 55 131 55q6 0 10 -2v-1026q0 -84 29 -131q29 -29 57.5 -51.5t28.5 -47t-158 -108.5q-166 133 -165 164v843q0 109 -76 197z" />
<glyph unicode="m" horiz-adv-x="1460" d="M-18 752v16q0 31 170 152q94 0 172 -179h18q37 39 121 95l133 84q27 0 106.5 -35t92.5 -54l22 -51q16 -35 33 -39q244 178 276 179q109 0 172 -89q57 -76 58 -188v-647h-199l2 485q0 115 -26 160q-37 61 -142 61q-84 0 -125 -30q-37 -28 -37 -80v-10l5 -80l6 -92v-414 h-205v590q0 53 -49 89t-111 36q-20 0 -84 -19q-43 -10 -74 -20v-676h-196v557q0 104 -21 143q-26 56 -118 56z" />
<glyph unicode="n" horiz-adv-x="962" d="M-4 766v25l178 133q98 -45 141 -101l41 -57l246 166q143 -41 191 -82q72 -61 71 -186v-652q-20 -12 -49 -8l-84 2l-82 6v531q0 90 -24 127q-31 47 -117 47q-35 0 -98 -21q-68 -18 -68 -51v-645h-199v653q0 41 -57 74q-12 8 -90 39z" />
<glyph unicode="o" horiz-adv-x="847" d="M12 485q0 154 140 281q117 104 286 162q158 -47 256 -203q92 -147 92 -319q0 -123 -145 -275q-143 -150 -266 -149q-137 0 -256 186q-107 167 -107 317zM129 545q0 -115 117 -223q115 -106 233 -107q188 0 189 141q0 125 -115 234q-113 106 -242 106q-70 0 -123 -41 q-59 -42 -59 -110z" />
<glyph unicode="p" horiz-adv-x="913" d="M-8 782q0 20 114 80l142 70h24v-158q51 6 123 82q76 76 113 76q145 0 244 -141q90 -127 90 -279q0 -188 -107 -344q-119 -174 -297 -174q-31 0 -84 33l-82 51v-463h-190q0 229 -2 326l-4 284q-2 96 -2 248v23q0 147 -37 221zM283 408q0 -98 59 -162t152 -64 q88 0 143 56.5t55 146.5q0 109 -84 211q-84 104 -194 104q-45 0 -131 -36v-256z" />
<glyph unicode="q" horiz-adv-x="886" d="M25 395q0 92 120 303q125 221 211 222q78 0 262 -89q20 0 80 39t86 39l23 -30q-53 -117 -53 -562q0 -141 8 -411l8 -305h-201v485h-8v18l-102 -75q-78 -55 -94 -56q-160 0 -256 136q-84 120 -84 286zM190 492q0 -104 58 -193q63 -100 164 -100q154 0 153 92 q0 205 -16 266q-41 145 -184 145q-72 0 -123 -69q-52 -65 -52 -141z" />
<glyph unicode="r" horiz-adv-x="700" d="M-6 758v16q10 16 86 74q74 55 92 59q49 0 109 -78l59 -77q184 154 205 155q39 0 76 -90q31 -76 30 -123q0 -41 -84 -112.5t-125 -85.5q-12 57 -12 125q0 43 6 79h-35q-23 0 -42 -16t-19 -37v-657h-197v512q0 109 -24 162q-33 69 -125 94z" />
<glyph unicode="s" horiz-adv-x="794" d="M-4 240q0 18 84 59l108 49q0 -123 31 -180q41 -78 154 -78q74 0 127 50t53 124q0 68 -43 127q-49 61 -115 62q-53 0 -145 -41q-98 -45 -131 -47q-104 115 -105 264q0 125 107 217q109 92 235 92q96 0 201 -61q106 -57 141 -146l-200 -110q-20 102 -47 145q-43 70 -127 70 q-55 0 -95.5 -42t-40.5 -102q0 -63 42 -114.5t102 -51.5q55 0 170 52l116 51q111 -98 111 -295q0 -150 -104 -248q-106 -96 -252 -96q-102 0 -234 73q-143 83 -143 177z" />
<glyph unicode="t" horiz-adv-x="622" d="M8 780v84l291 256h53l4 -102v-80q0 -6 -1 -11t-3 -9v-3h207v-135h-201v-487q0 -143 185 -143v-31q-168 -125 -191 -125h-3q-62 0 -130 69q-66 76 -65 142v557q-16 12 -48 18l-47 2z" />
<glyph unicode="u" horiz-adv-x="960" d="M-6 795q121 135 147 135q12 0 23 -10l22 -23q82 -63 101 -123q4 -16 4 -164v-282q0 -55 51 -95q53 -41 109 -40q70 0 159 71v633l103 23q51 10 102 10l-8 -670q0 -49 45 -88q47 -41 49 -51q0 -25 -149 -131q-51 0 -97 61q-35 47 -53 109q-25 -8 -141 -99 q-100 -72 -123 -71q-57 0 -156 80q-96 84 -96 137l-8 461q0 16 -41 63q-39 46 -43 64z" />
<glyph unicode="v" horiz-adv-x="966" d="M33 858v49h280l45 -88q33 -61 56 -78l98 107q78 84 106 84q117 0 201 -103q78 -100 78 -217q0 -133 -84 -272q-49 -80 -178 -229q-119 -135 -137 -138q-31 0 -113 205q-43 111 -86 244q-110 348 -266 436zM442 643l185 -457q113 174 112 291q0 82 -53 148q-51 68 -133 67 q-12 0 -57 -10l-54 -14v-25z" />
<glyph unicode="w" horiz-adv-x="1323" d="M20 729v25q0 25 50 108q49 88 67 90q94 0 158 -63l104 -135q18 14 78 110q55 88 68 88q119 0 180 -80q4 -6 88 -176h16q6 6 89 142q68 113 81 114q98 0 181 -98q86 -96 86 -195q0 -96 -174 -376q-172 -283 -240 -283q-20 0 -74 160q-59 182 -69 198q-14 -12 -131 -198 q-96 -154 -121 -160q-43 72 -109 283q-70 219 -112 301q-80 150 -179 149zM428 674l141 -400q66 117 111 175q0 45 -64 157q-61 115 -102 115q-25 0 -43 -8l-43 -17v-22zM852 629l133 -369q117 133 117 258q0 68 -33 125q-41 72 -98 72q-45 0 -119 -86z" />
<glyph unicode="x" horiz-adv-x="927" d="M-27 -49q0 20 80 115q115 141 154 200q82 125 82 205q0 96 -51 141q-31 29 -119 56q-88 29 -117 51l121 209h22l252 -228l250 218q37 -23 117 -101q84 -82 90 -106l-121 -117q-20 0 -80 35q-57 35 -86 35q-80 0 -80 -135.5t35 -198t115 -74.5l199 -31v-30 q-84 -141 -197 -211l-256 211l-307 -283l-51 -18z" />
<glyph unicode="y" horiz-adv-x="899" d="M0 881v24q33 12 82 13q158 0 192 -15q18 -10 37 -59q20 -61 49 -86q162 180 193 180q119 0 205 -104q80 -98 80 -222q0 -125 -142 -329q-90 -129 -272 -334q-186 -213 -274 -336h-138l-12 8v6l385 439q-39 90 -106 286q-76 217 -109 281q-72 146 -170 248zM393 676 l166 -443q43 31 80 117t37 144q0 86 -41 145q-45 68 -131 68q-66 0 -111 -31z" />
<glyph unicode="z" horiz-adv-x="886" d="M-8 -6v43q51 43 284 311q227 264 228 297q0 35 -49 45l-76 2h-21q-91 0 -141 -16q-8 -2 -65 -39q-39 -27 -82 -37v39q33 57 110 260h625v-39q-506 -549 -506 -610q0 -47 88 -47q141 0 207 10q104 18 188 86h17v-23q0 -39 -99 -272l-116 -10h-592z" />
<glyph unicode="{" d="M190 332v147q45 6 68 41q25 29 25 101v266q0 125 63 176q41 35 117 45q12 2 129 2h35v-170q-135 0 -154 -72q-4 -37 -4 -69v-207q0 -70 -16 -113q-23 -47 -78 -80q94 -49 94 -194v-205q0 -72 14 -94q27 -47 127 -48q8 0 17 1v-162h-37q-133 0 -178 10q-129 35 -129 230 v241q-1 136 -93 154z" />
<glyph unicode="|" d="M315 -268v1362h189v-1362h-189z" />
<glyph unicode="}" d="M193 -133q135 0 153 72q4 37 4 63v207q0 70 17 113q23 51 77 79q-94 51 -94 195v209q0 106 -53 131q-37 14 -104 14v160h34q143 0 181 -10q129 -37 129 -230v-247q0 -133 92 -152v-147q-92 -25 -92 -144v-258q0 -197 -164 -219q-53 -6 -148 -6h-32v170z" />
<glyph unicode="~" horiz-adv-x="1093" d="M154 1004q86 205 233 204q57 0 186 -59q49 -23 97 -41q27 -8 43 -8q74 0 135 112l94 -77q-86 -201 -250 -201q-45 0 -186 65q-80 39 -129 39q-68 0 -129 -110z" />
<glyph unicode="&#xa1;" horiz-adv-x="417" d="M74 1196q0 16 51 74q45 53 68 69q150 -121 155 -157q-109 -145 -145 -146q-35 0 -82 62q-47 63 -47 98zM94 -12q0 465 45 762q12 84 23 116q51 16 96 74q57 72 84 96l-27 -301q-14 -152 -14 -256q0 -94 31 -395z" />
<glyph unicode="&#xa2;" horiz-adv-x="667" d="M20 745q0 174 37 297q54 176 166 176q12 0 25 -1q29 -4 28 24v123q0 23 11 22l30 -6q4 0 36 7.5t34 7.5q27 0 27 -23v-123q0 -35 24 -35l54 3q90 -16 90 -160q0 -246 -113 -334q-14 -10 -31 -10q-20 0 -36.5 15t-10.5 34q4 29 4 72q0 143 -78 143q-55 0 -81 -80 q-20 -55 -21 -125q0 -211 123 -326q29 -29 100 -59q139 -59 185 -129q25 -37 24 -55q0 -25 -8 -25l-18 4q-55 12 -177 13q-37 0 -36 -29v-166q0 -14 -13 -14l-18 6q-18 6 -23 6l-20 -6q-20 -6 -25 -6q-45 0 -45 53v111q0 35 -20 34q-127 16 -185 236q-39 141 -39 325z" />
<glyph unicode="&#xa3;" horiz-adv-x="892" d="M20 682q0 18 17 18q-16 0 8 -8l18 -6q51 -12 62 -12q29 0 53 8l-28 104q-25 90 -25 158q0 221 201 305q74 31 157 31q135 0 224 -70q100 -76 100 -206q0 -121 -51 -121q-14 0 -23 8l-31 57q-45 88 -178 88q-104 0 -162.5 -61.5t-58.5 -167.5q0 -16 10 -102q59 14 115 14 q53 0 94 -41q55 -59 56 -105q0 -23 -19 -22q-2 0 -39 12q-33 12 -45 12q-8 0 -135 -16l4 -78q1 -12 1 -23q0 -148 -95 -319q109 78 227 78h27l28 -2l130 -6h8q65 0 82 63q6 23 6 86q0 53 39 54q37 0 45 -125q2 -53 12 -160l16 -92q0 -43 -82 -43q-63 0 -182 12 q-113 14 -182 14q-37 0 -135.5 -10t-132.5 -10q-88 0 -88 41q0 25 38 72q123 156 123 344q0 16 -10 88l-67 -6q-53 0 -92.5 45t-39.5 100z" />
<glyph unicode="&#xa4;" horiz-adv-x="878" d="M23 227q0 12 26 33q72 57 152 150q-100 113 -101 252q0 121 84 217q-70 90 -125 127q-35 25 -34 38q0 23 28 23l23 -2l33 -2h8q27 0 59 10l17 6q8 0 18 -10l88 -119q20 6 35 6l43 -6l37 -4q18 0 65 8l51 9q20 0 50 -17l79 113q14 18 29 20l19 -6q33 -11 56 -10h7l57 4 q29 4 29 -23q0 -14 -35 -38q-61 -41 -143 -152q76 -88 76 -201q0 -119 -90 -215q41 -76 167 -178q25 -23 25 -33q0 -27 -29 -22l-47 2l-86 -10q-18 0 -65 59l-62 82q-98 -74 -133 -74q-41 0 -135 58l-84 -117q-8 -8 -29 -8l-67 8l-25 2l-16 -2h-27q-28 -1 -28 22zM227 743 q0 -125 74 -208.5t193 -83.5q143 0 143 122q0 145 -127 248q-66 53 -139 54q-144 -1 -144 -132z" />
<glyph unicode="&#xa5;" horiz-adv-x="899" d="M20 1247q0 33 37 33q10 0 51.5 -7t53.5 -7q55 0 106 14l25 2h4q56 0 74 -117q7 -59 6 -131v-37l-21 -393v-14q0 -123 103 -123q74 0 121 151q72 244 71 435q0 86 -61 145q-29 29 -29 47q0 35 43 35q18 0 39 -6q57 -6 80 -6q20 0 106 12h13q37 0 37 -66q0 -219 -166 -598 h41q41 0 82 -43q43 -43 43 -84q0 -20 -17 -20q-2 0 -39 12.5t-51 10.5l-96 -7l-37 -4q-43 -66 -96 -90l4 -51l94 8q4 0 8 1q45 0 86 -42q49 -45 49 -92q0 -18 -18 -18q-4 0 -40 12t-46 10l-115 -8q8 -72 19 -92q16 -33 61 -72q18 -14 19 -29q4 -18 -25 -18h-35 q-86 10 -143 10q-33 0 -129 -10l-29 -4q-31 0 -31 18q0 20 37 45q57 37 58 131l-33 -4l-60 -4h-4q-49 0 -86 47l-26 45l-13 41q0 16 15 17q4 0 36.5 -12.5t41.5 -12.5q49 0 137 15l2 59q-59 10 -119 84l-43 -4l-59 -4q-4 0 -9 -1q-42 0 -78 39q-40 42 -40 93q0 16 16 16 q68 -23 76 -22l84 6q-10 55 -43 321q-29 225 -109 291q-33 27 -33 47z" />
<glyph unicode="&#xa6;" horiz-adv-x="243" d="M23 313h200v-649h-200v649zM23 672v694h200v-694h-200z" />
<glyph unicode="&#xa7;" horiz-adv-x="946" d="M53 -223q70 131 90 180l494 -6q23 129 22 348q0 129 -20 170q-82 -102 -143 -229q-274 53 -316 157q-18 45 -18 150q0 186 26 317q57 39 140 109q117 98 145 131q123 -31 295 -31q45 0 94 2l29 -188l-526 43q-29 -131 -29 -279q0 -63 10 -129l125 195q250 -16 313 -111 q55 -82 56 -295q0 -201 -41 -354q-188 -90 -281 -178q-133 10 -199 10q-73 0 -266 -12zM358 500q74 -86 152 -86q27 0 63 14l54 59q-74 74 -140 74q-37 0 -100 -33z" />
<glyph unicode="&#xa8;" horiz-adv-x="745" d="M102 1188l158 149l117 -149l-127 -168zM446 1188l158 149l117 -149l-127 -168z" />
<glyph unicode="&#xa9;" horiz-adv-x="1271" d="M70 545q0 162 83 298t228 210q119 59 262 59q231 0 393 -168q164 -170 164 -399q0 -236 -164 -400q-162 -162 -399 -161q-240 0 -404 161q-163 164 -163 400zM162 545q0 -201 137 -340q139 -141 335.5 -141.5t336.5 141.5q139 143 139 340q0 203 -139 342 q-139 141 -340 141q-197 0 -334 -143q-135 -143 -135 -340zM334 555q0 51 6 96v15q70 55 170 198q63 25 141 25q98 0 187 -31v-20q0 -25 2 -52v-69q-104 45 -195 45q-94 0 -174 -35q-16 -111 -16 -162q0 -233 266 -233q80 0 113 20l20 13l16 -17q-53 -61 -102 -129 q-27 -2 -74 -2q-82 0 -133 10q-129 27 -192 150q-35 74 -35 178z" />
<glyph unicode="&#xaa;" horiz-adv-x="438" d="M12 528l72 70l-16 221q53 68 79 113h35q182 0 183 -156v-174q0 -76 30 -76q8 0 17 9l18 -23q-55 -41 -100 -86q-53 27 -80 76q-10 -8 -84 -78zM117 770q0 -53 10 -129l115 109v22q0 51 -72 51q-35 0 -51 -6v-33zM131 584l49 -35q35 -23 53 -23q4 0 8 1l3 1l-2 166z" />
<glyph unicode="&#xab;" horiz-adv-x="679" d="M33 397l176 170h164l-183 -170l175 -170h-160zM307 397l178 170h162l-180 -170l176 -170h-162z" />
<glyph unicode="&#xac;" d="M166 847.5q0 104.5 71.5 175.5t176.5 71q98 0 168 -74q72 -72 71.5 -170t-71.5 -174q-72 -72 -170 -72q-104 0 -175 69.5t-71 174zM244 847.5q0 -67.5 48 -116.5t118 -49q66 0 115.5 50t49.5 116q0 70 -50 119t-119 49q-68 0 -115 -50.5t-47 -118z" />
<glyph unicode="&#xad;" horiz-adv-x="698" d="M2 397q-2 -12 11.5 -23.5t25.5 -11.5q4 0 6 3h6q55 57 117 57h209q76 0 106 -8l58 -15l77 209q2 3 2 7q0 7 -9 12q-13 8 -27 8q-12 0 -19 -8q-55 -43 -110 -43h-205q-88 0 -168 26z" />
<glyph unicode="&#xae;" horiz-adv-x="1271" d="M70 545q0 162 83 298t228 210q119 59 262 59q158 0 291 -84t205 -225q61 -123 61 -258q0 -236 -164 -400q-162 -162 -401 -161q-238 0 -402 161q-163 164 -163 400zM162 544.5q0 -196.5 137 -339.5q139 -141 335.5 -141.5t336.5 141.5q139 143 139 340q0 203 -139 342 q-139 141 -340 141q-197 0 -334 -143q-135 -144 -135 -340.5zM399 864v13q66 6 138 26q0 -53 -2 -78v-28l86 100q72 -4 120 -25q98 -43 99 -198q0 -2 -1 -9.5t-2 -19.5t-1 -24l-113 -46q33 -41 68 -145q23 -66 34 -78q25 -29 72 -28q10 0 25 8l16 -15q-4 -4 -15 -17l-32 -38 l-43 -51q-41 10 -68 18q-43 14 -65 54q-10 16 -39 104q-25 72 -43 92q-25 29 -88 51q74 39 129 78q10 -2 31 -18q12 29 12 57q0 70 -23.5 98.5t-89.5 28.5q-35 0 -69 -12l-3 -322q0 -123 11 -209l2 -14q-12 0 -35 1t-33 3q-6 0 -15 -1t-26.5 -2t-29.5 -1q7 61 6 136v38 q-1 36 -1 82t1 102v42q0 143 -13 247z" />
<glyph unicode="&#xb0;" d="M258 1018q82 86 139 190q70 -16 90 -32q74 -45 74 -121q0 -63 -49 -114.5t-113 -51.5q-66 0 -112 65q-21 31 -29 64zM336 1083q0 -10 53 -88q25 -37 90 -37h25q1 11 1 21q0 41 -15 61q-17 25 -76 56q-25 12 -41 12q-37 0 -37 -25z" />
<glyph unicode="&#xb1;" d="M29 66v92h762v-92h-762zM29 541v92h331v321h97v-321h334v-92h-334v-314h-97v314h-331z" />
<glyph unicode="&#xb2;" horiz-adv-x="589" d="M55 801l31 147l66 39q68 29 127 29q94 0 151 -54.5t57 -146.5q0 -115 -98 -213q-35 -35 -80 -59l219 2l-59 -107h-377l33 105q10 -2 51 -2q70 0 123 53q72 72 72 172q0 139 -129 139q-66 0 -131 -49q-17 -12 -56 -55z" />
<glyph unicode="&#xb3;" horiz-adv-x="589" d="M76 905l18 107h418v-19l-197 -217q109 -12 150 -86q20 -39 20 -86q0 -104 -82 -162q-70 -51 -178 -51q-49 0 -108 19l-25 104q84 -68 156 -68q53 0 87 38t34 93.5t-39 90t-97 34.5q-29 0 -47 -8l-10 13l186 200z" />
<glyph unicode="&#xb4;" horiz-adv-x="655" d="M305 1135l219 227l64 -178l-240 -164z" />
<glyph unicode="&#xb5;" horiz-adv-x="2048" />
<glyph unicode="&#x3bc;" horiz-adv-x="2048" />
<glyph unicode="&#xb6;" horiz-adv-x="1075" d="M47 639q0 96 29 262q94 53 143 88q53 39 137 115q160 -59 310 -96l108 -27q31 72 141 121l166 -131l-16 -25q-20 14 -37 15q-90 0 -90 -142v-821q0 -115 8 -203q-61 6 -94 6t-94 -6q8 90 8 144v940q0 49 2 71q-35 0 -111 -45v-889q0 -180 9 -221q-61 6 -93 6 q-33 0 -94 -6l4 86v531q-37 -39 -118 -150q-170 20 -244 108.5t-74 268.5zM233 698q0 -109 17 -157q29 -74 98 -101q27 -10 62 -10q29 0 73 12v437l-231 71q-19 -94 -19 -252z" />
<glyph unicode="&#xb7;" horiz-adv-x="999" d="M412 432q0 39 25.5 63.5t64.5 24.5q88 0 88 -86q0 -39 -24.5 -64.5t-63.5 -25.5q-35 0 -62.5 26.5t-27.5 61.5z" />
<glyph unicode="&#x2219;" horiz-adv-x="999" d="M412 432q0 39 25.5 63.5t64.5 24.5q88 0 88 -86q0 -39 -24.5 -64.5t-63.5 -25.5q-35 0 -62.5 26.5t-27.5 61.5z" />
<glyph unicode="&#xb8;" d="M270 -190q49 29 92 63q39 33 78 90q14 -10 109 -65q-27 -51 -97.5 -91t-146.5 -47q-10 11 -35 50z" />
<glyph unicode="&#xb9;" horiz-adv-x="589" d="M184 909v21q41 6 66 24q35 14 119 86v-413q0 -123 22 -191q-20 0 -39.5 1t-29 2t-11.5 1t-11 -1t-28.5 -2t-40.5 -1q14 55 15 119v16l-4 254q0 39 -6 54q-13 28 -52 30z" />
<glyph unicode="&#xba;" horiz-adv-x="532" d="M37 684q0 66 12 127l205 133q72 -8 127 -41q115 -72 115 -219q0 -76 -31 -156l-14 -7l-28 -14q-17 -9 -34 -20q-12 -6 -106 -57q-86 14 -144 45q-102 55 -102 209zM160 723q0 -188 188 -207q18 86 19 141q0 182 -170 183h-23q-14 -56 -14 -117z" />
<glyph unicode="&#xbb;" horiz-adv-x="679" d="M33 567h160l180 -170l-174 -170h-162l176 170zM307 567h164l176 -170l-172 -170h-160l174 170z" />
<glyph unicode="&#xbf;" horiz-adv-x="872" d="M-27 332q0 78 25 131q14 33 68 82q66 57 79 80q29 41 76 256q37 12 96 73l82 95q0 -49 -6 -121q-14 -152 -14 -219q-18 -49 -103 -158q-70 -88 -69 -186q0 -82 74 -140q76 -59 155 -59q158 0 291 133h41v-11q0 -107 -150 -206q-145 -94 -260 -94q-145 0 -264 96 q-121 103 -121 248zM182 1229q0 41 117 143q156 -123 156 -158q-109 -145 -146 -145q-35 0 -82 59q-45 60 -45 101z" />
<glyph unicode="&#xc0;" horiz-adv-x="1284" d="M4 2q0 4 66 113q68 106 75 139q121 487 121 981h-229v47q37 25 129 25h1005v-45q-103 -103 -103 -331q0 -17 1 -34l8 -283q0 -127 8 -323q8 -156 99 -301h-672v41l90 -2q9 0 19 -1q244 0 243 158v363h-598q0 -147 -45 -348q-57 -258 -153 -258q-64 0 -64 59zM313 752h535 v233q0 106 -76 232h-414q0 -37 -24 -248l-21 -97v-120zM352 1569l242 -164l41 115l-219 227z" />
<glyph unicode="&#xc1;" horiz-adv-x="1284" d="M4 2q0 4 66 113q68 106 75 139q121 487 121 981h-229v47q37 25 129 25h1005v-45q-103 -103 -103 -331q0 -17 1 -34l8 -283q0 -127 8 -323q8 -156 99 -301h-672v41l90 -2q9 0 19 -1q244 0 243 158v363h-598q0 -147 -45 -348q-57 -258 -153 -258q-64 0 -64 59zM313 752h535 v233q0 106 -76 232h-414q0 -37 -24 -248l-21 -97v-120zM551 1520l219 227l64 -178l-240 -164z" />
<glyph unicode="&#xc2;" horiz-adv-x="1284" d="M4 2q0 4 66 113q68 106 75 139q121 487 121 981h-229v47q37 25 129 25h1005v-45q-103 -103 -103 -331q0 -17 1 -34l8 -283q0 -127 8 -323q8 -156 99 -301h-672v41l90 -2q9 0 19 -1q244 0 243 158v363h-598q0 -147 -45 -348q-57 -258 -153 -258q-64 0 -64 59zM313 752h535 v233q0 106 -76 232h-414q0 -37 -24 -248l-21 -97v-120zM414 1522l221 227v-8l217 -221l-43 -115l-178 123l-174 -123z" />
<glyph unicode="&#xc3;" horiz-adv-x="1284" d="M4 2q0 4 66 113q68 106 75 139q121 487 121 981h-229v47q37 25 129 25h1005v-45q-103 -103 -103 -331q0 -17 1 -34l8 -283q0 -127 8 -323q8 -156 99 -301h-672v41l90 -2q9 0 19 -1q244 0 243 158v363h-598q0 -147 -45 -348q-57 -258 -153 -258q-64 0 -64 59zM313 752h535 v233q0 106 -76 232h-414q0 -37 -24 -248l-21 -97v-120zM369 1450l37 41q88 100 147 100q23 0 45 -8l51 -22l51 -25q66 -33 95 -33q25 0 69 39l25 21q12 -8 41 -35l-37 -31q-53 -43 -55 -51q-47 -41 -80 -41q-37 0 -107 29l-57 24q-70 31 -90 31q-25 0 -41 -16 q-10 -10 -33 -29l-20 -23q-10 11 -41 29z" />
<glyph unicode="&#xc4;" horiz-adv-x="1284" d="M4 2q0 4 66 113q68 106 75 139q121 487 121 981h-229v47q37 25 129 25h1005v-45q-103 -103 -103 -331q0 -17 1 -34l8 -283q0 -127 8 -323q8 -156 99 -301h-672v41l90 -2q9 0 19 -1q244 0 243 158v363h-598q0 -147 -45 -348q-57 -258 -153 -258q-64 0 -64 59zM313 752h535 v233q0 106 -76 232h-414q0 -37 -24 -248l-21 -97v-120zM324 1573l159 149l117 -149l-127 -168zM668 1573l159 149l117 -149l-127 -168z" />
<glyph unicode="&#xc5;" horiz-adv-x="1284" d="M4 2q0 4 66 113q68 106 75 139q121 487 121 981h-229v47q37 25 129 25h1005v-45q-103 -103 -103 -331q0 -17 1 -34l8 -283q0 -127 8 -323q8 -156 99 -301h-672v41l90 -2q9 0 19 -1q244 0 243 158v363h-598q0 -147 -45 -348q-57 -258 -153 -258q-64 0 -64 59zM313 752h535 v233q0 106 -76 232h-414q0 -37 -24 -248l-21 -97v-120zM469 1534q84 88 141 190q164 -37 164 -153q0 -63 -50 -114.5t-114 -51.5q-66 0 -112 65q-15 23 -29 64zM547 1599q0 -8 55 -88q25 -37 90 -36h23q1 11 1 20q0 41 -15 61q-17 25 -76 56q-25 12 -41 12q-37 0 -37 -25z " />
<glyph unicode="&#xc6;" horiz-adv-x="2084" d="M4 2q0 4 66 113q68 106 75 139q121 487 121 981h-229v47q37 25 129 25h1005v-43q113 63 238 63q111 0 209 -39q57 -23 156 -76q68 -37 96 -41l108 48v-62q-109 -102 -270 -201q-115 250 -291 250q-129 0 -223 -82q-84 -72 -125 -200v-27l4 -166q252 37 440 37 q113 0 240 6l102 4q119 4 138 4l-158 -174q-105 -113 -171 -113q-4 0 -9 1l-283 45q-205 33 -293 34q0 -16 1 -49.5t2 -96t1 -116.5q27 -49 88 -108q133 -127 267 -127q117 0 213 102q96 106 96 223h248v-47q-4 -14 -56 -90q-197 -291 -530 -291q-135 0 -242 43q2 -8 17 -28 h-672v41l90 -2q9 0 19 -1q244 0 243 158v80q-92 127 -112 283h-486q0 -147 -45 -348q-57 -258 -153 -258q-64 0 -64 59zM313 752h449q20 90 86 198v35q0 106 -76 232h-414q0 -37 -24 -248l-21 -97v-120z" />
<glyph unicode="&#xc7;" horiz-adv-x="1282" d="M-2 629q0 283 195 489q197 205 479 205q289 0 477 -201q-123 -113 -209 -170q-100 248 -313 248q-178 0 -289 -182q-96 -158 -96 -342q0 -225 125 -369q131 -156 350 -155q147 0 254 55q55 31 129 96q55 49 110 49q-43 -174 -219 -276q-156 -88 -348 -88q-268 0 -457 186 q-188 189 -188 455zM479 -207q109 59 170 152q47 -31 109 -66q-27 -51 -97.5 -90t-148.5 -45z" />
<glyph unicode="&#xc8;" horiz-adv-x="1349" d="M12 635q0 236 213 465q215 227 451 227q111 0 209 -39q61 -25 155 -76q66 -37 95 -41l108 48v-62q-111 -104 -268 -201q-117 250 -291 250q-184 0 -287 -153q-90 -137 -90 -328q270 43 473 43q80 0 238 6q141 8 239 8l-155 -174q-104 -113 -171 -113q-5 0 -9 1l-285 45 q-225 35 -297 34q-16 0 -33 -4v-106q0 -137 127 -264q129 -123 271 -123q117 0 213 102q94 102 94 223h250v-47q-8 -16 -56 -90q-193 -291 -530 -291q-274 0 -469 193q-195 195 -195 467zM352 1569l242 -164l41 115l-219 227z" />
<glyph unicode="&#xc9;" horiz-adv-x="1349" d="M12 635q0 236 213 465q215 227 451 227q111 0 209 -39q61 -25 155 -76q66 -37 95 -41l108 48v-62q-111 -104 -268 -201q-117 250 -291 250q-184 0 -287 -153q-90 -137 -90 -328q270 43 473 43q80 0 238 6q141 8 239 8l-155 -174q-104 -113 -171 -113q-5 0 -9 1l-285 45 q-225 35 -297 34q-16 0 -33 -4v-106q0 -137 127 -264q129 -123 271 -123q117 0 213 102q94 102 94 223h250v-47q-8 -16 -56 -90q-193 -291 -530 -291q-274 0 -469 193q-195 195 -195 467zM551 1520l219 227l64 -178l-240 -164z" />
<glyph unicode="&#xca;" horiz-adv-x="1349" d="M12 635q0 236 213 465q215 227 451 227q111 0 209 -39q61 -25 155 -76q66 -37 95 -41l108 48v-62q-111 -104 -268 -201q-117 250 -291 250q-184 0 -287 -153q-90 -137 -90 -328q270 43 473 43q80 0 238 6q141 8 239 8l-155 -174q-104 -113 -171 -113q-5 0 -9 1l-285 45 q-225 35 -297 34q-16 0 -33 -4v-106q0 -137 127 -264q129 -123 271 -123q117 0 213 102q94 102 94 223h250v-47q-8 -16 -56 -90q-193 -291 -530 -291q-274 0 -469 193q-195 195 -195 467zM414 1522l221 227v-8l217 -221l-43 -115l-178 123l-174 -123z" />
<glyph unicode="&#xcb;" horiz-adv-x="1349" d="M12 635q0 236 213 465q215 227 451 227q111 0 209 -39q61 -25 155 -76q66 -37 95 -41l108 48v-62q-111 -104 -268 -201q-117 250 -291 250q-184 0 -287 -153q-90 -137 -90 -328q270 43 473 43q80 0 238 6q141 8 239 8l-155 -174q-104 -113 -171 -113q-5 0 -9 1l-285 45 q-225 35 -297 34q-16 0 -33 -4v-106q0 -137 127 -264q129 -123 271 -123q117 0 213 102q94 102 94 223h250v-47q-8 -16 -56 -90q-193 -291 -530 -291q-274 0 -469 193q-195 195 -195 467zM324 1573l159 149l117 -149l-127 -168zM668 1573l159 149l117 -149l-127 -168z" />
<glyph unicode="&#xcc;" horiz-adv-x="940" d="M6 1284v78h47l62 -23q68 -25 94 -24h545v-62q-96 0 -140 -12q-78 -23 -77 -96v-842q0 -143 2 -149q18 -86 90 -93q74 -6 155 -24l58 -12q20 -2 20 -43q0 -14 -24.5 -39t-38.5 -25q-27 0 -56 29l-38 51h-652l6 74l117 -2h6q119 0 119 80v933q0 94 -49 131q-25 18 -119 33 q-96 19 -127 37zM168 1569l242 -164l43 115l-220 227z" />
<glyph unicode="&#xcd;" horiz-adv-x="940" d="M6 1284v78h47l62 -23q68 -25 94 -24h545v-62q-96 0 -140 -12q-78 -23 -77 -96v-842q0 -143 2 -149q18 -86 90 -93q74 -6 155 -24l58 -12q20 -2 20 -43q0 -14 -24.5 -39t-38.5 -25q-27 0 -56 29l-38 51h-652l6 74l117 -2h6q119 0 119 80v933q0 94 -49 131q-25 18 -119 33 q-96 19 -127 37zM373 1520l219 227l63 -178l-241 -164z" />
<glyph unicode="&#xce;" horiz-adv-x="940" d="M6 1284v78h47l62 -23q68 -25 94 -24h545v-62q-96 0 -140 -12q-78 -23 -77 -96v-842q0 -143 2 -149q18 -86 90 -93q74 -6 155 -24l58 -12q20 -2 20 -43q0 -14 -24.5 -39t-38.5 -25q-27 0 -56 29l-38 51h-652l6 74l117 -2h6q119 0 119 80v933q0 94 -49 131q-25 18 -119 33 q-96 19 -127 37zM213 1522l219 227l2 -8l217 -221l-43 -115l-178 123l-174 -123z" />
<glyph unicode="&#xcf;" horiz-adv-x="940" d="M6 1284v78h47l62 -23q68 -25 94 -24h545v-62q-96 0 -140 -12q-78 -23 -77 -96v-842q0 -143 2 -149q18 -86 90 -93q74 -6 155 -24l58 -12q20 -2 20 -43q0 -14 -24.5 -39t-38.5 -25q-27 0 -56 29l-38 51h-652l6 74l117 -2h6q119 0 119 80v933q0 94 -49 131q-25 18 -119 33 q-96 19 -127 37zM94 1573l158 149l117 -149l-127 -168zM438 1573l158 149l117 -149l-127 -168z" />
<glyph unicode="&#xd0;" horiz-adv-x="2920" d="M23 -78v1716h2875v-1716h-2875zM125 291q0 -197 180 -197h168q129 0 158 148h-109q-25 -31 -51 -43h-166q-72 0 -72 88v635q0 12 17 65q16 12 35 12q27 0 55 -28l195 -191q174 -172 178 -190q4 -94 4 -346q0 -68 41 -113t106 -45q61 0 105.5 45t44.5 107l2 1400h-115 l4 -1396q0 -12 -12 -27.5t-25 -15.5q-39 0 -39 43v309q0 90 -63 154l-367 362q-39 39 -106.5 39t-114.5 -35q-53 -41 -53 -104v-676zM1157 242q0 -61 41 -102.5t102 -41.5h578q80 0 128 50.5t48 130.5v192q0 84 -53 132t-143 48h-504q-84 0 -84 76v195q0 88 84 88h499 q47 0 89 -43h102q-27 156 -182 155h-504q-92 0 -146.5 -58t-54.5 -151v-182q0 -84 52.5 -136t136.5 -52h512q92 0 92 -92v-156q0 -92 -125 -92h-512q-45 0 -45 43q0 37 41 37h553v108h-572q-59 0 -96 -43t-37 -106zM2218 1370q0 -180 238 -180q10 0 96 4t98 4q84 0 84 -39 q0 -43 -82 -43q-10 0 -100 4q-66 6 -98 6q-236 0 -236 -196v-660q0 -143 147 -176v115q-39 25 -38 86v618q0 92 71 93h299q59 0 104.5 43t45.5 102q0 61 -39 104t-94 43h-304q-76 0 -75 72v268h-117v-268z" />
<glyph unicode="&#xd1;" horiz-adv-x="1402" d="M0 1247l299 76l416 -471q360 -406 389 -412v647q0 49 -4 87q-12 49 -51 61l-86 27v47h360v-47q-63 -12 -109 -48v-1259h-94q-6 80 -391 539q-387 463 -477 499l10 -628q0 -23 1 -46q0 -180 -30 -327q-29 -154 -122 -416h-50v47q0 66 39 191q57 184 58 247v680 q0 334 -39 410q-14 29 -56 57q-49 25 -63 39zM369 1450l37 41q88 100 147 100q23 0 45 -8l51 -22l51 -25q66 -33 95 -33q25 0 69 39l25 21q12 -8 41 -35l-37 -31q-53 -43 -55 -51q-47 -41 -80 -41q-37 0 -107 29l-57 24q-70 31 -90 31q-25 0 -41 -16q-10 -10 -33 -29 l-20 -23q-10 11 -41 29z" />
<glyph unicode="&#xd2;" horiz-adv-x="1310" d="M0 674q0 215 209 440t424 225q236 0 422 -252q178 -233 178 -475q0 -184 -217 -407t-400 -223q-229 0 -426 233q-190 223 -190 459zM172 801q0 -219 182 -395q180 -174 406 -175q113 0 207 78q94 76 94 191q0 201 -187 393q-188 195 -387 194q-137 0 -223 -73 q-92 -76 -92 -213zM352 1569l242 -164l41 115l-219 227z" />
<glyph unicode="&#xd3;" horiz-adv-x="1310" d="M0 674q0 215 209 440t424 225q236 0 422 -252q178 -233 178 -475q0 -184 -217 -407t-400 -223q-229 0 -426 233q-190 223 -190 459zM172 801q0 -219 182 -395q180 -174 406 -175q113 0 207 78q94 76 94 191q0 201 -187 393q-188 195 -387 194q-137 0 -223 -73 q-92 -76 -92 -213zM612 1520l219 227l64 -178l-240 -164z" />
<glyph unicode="&#xd4;" horiz-adv-x="1310" d="M0 674q0 215 209 440t424 225q236 0 422 -252q178 -233 178 -475q0 -184 -217 -407t-400 -223q-229 0 -426 233q-190 223 -190 459zM172 801q0 -219 182 -395q180 -174 406 -175q113 0 207 78q94 76 94 191q0 201 -187 393q-188 195 -387 194q-137 0 -223 -73 q-92 -76 -92 -213zM434 1522l221 227v-8l217 -221l-43 -115l-178 123l-174 -123z" />
<glyph unicode="&#xd5;" horiz-adv-x="1310" d="M0 674q0 215 209 440t424 225q236 0 422 -252q178 -233 178 -475q0 -184 -217 -407t-400 -223q-229 0 -426 233q-190 223 -190 459zM172 801q0 -219 182 -395q180 -174 406 -175q113 0 207 78q94 76 94 191q0 201 -187 393q-188 195 -387 194q-137 0 -223 -73 q-92 -76 -92 -213zM389 1450l37 41q88 100 147 100q23 0 45 -8l52 -22l51 -25q66 -33 94 -33q25 0 70 39l24 21q12 -8 41 -35l-37 -31q-53 -43 -55 -51q-47 -41 -80 -41q-37 0 -106 29l-58 24q-70 31 -90 31q-25 0 -41 -16q-10 -10 -32 -29l-21 -23q-10 11 -41 29z" />
<glyph unicode="&#xd6;" horiz-adv-x="1310" d="M0 674q0 215 209 440t424 225q236 0 422 -252q178 -233 178 -475q0 -184 -217 -407t-400 -223q-229 0 -426 233q-190 223 -190 459zM172 801q0 -219 182 -395q180 -174 406 -175q113 0 207 78q94 76 94 191q0 201 -187 393q-188 195 -387 194q-137 0 -223 -73 q-92 -76 -92 -213zM344 1573l160 149l117 -149l-127 -168zM688 1573l160 149l117 -149l-127 -168z" />
<glyph unicode="&#xd7;" d="M106 336l236 233l-227 228l69 67l226 -225l235 235l66 -65l-236 -236l227 -227l-67 -70l-227 228l-236 -234z" />
<glyph unicode="&#xd8;" horiz-adv-x="1142" d="M59 528q0 145 52 279q2 2 155 125q74 59 160 160q102 12 152 12q168 0 311 -107l135 187l45 -35l-137 -186q152 -164 151 -383q0 -184 -94 -379q-170 -80 -321 -211h-72q-174 4 -303 90l-133 -180l-45 37l131 178q-187 159 -187 413zM250 575q0 -106 35 -186 q25 -53 80 -110l401 552q-125 88 -285 89q-82 0 -149 -27q-82 -125 -82 -318zM408 240q133 -84 276 -84q39 0 107 12q111 160 110 344q0 156 -92 279z" />
<glyph unicode="&#xd9;" horiz-adv-x="1308" d="M0 680q0 119 86 299q76 160 166 268q-84 20 -129 21q-59 0 -109 -21l-2 70l66 20h1173l-84 -84q-49 -49 -49 -102v-803q0 -172 125 -205v-47l-84 -76q-57 -47 -90 -47q-55 0 -111 66q-49 57 -61 121q-41 -14 -156 -123q-86 -80 -176 -80q-109 0 -248 125 q-121 113 -213 274q-104 181 -104 324zM254 715q0 -170 94 -326q109 -182 266 -182q250 0 250 330v600l-37 120q-6 2 -94 9l-94 8q-11 1 -22 1q-158 0 -269 -198q-94 -167 -94 -362zM551 1520l219 227l64 -178l-240 -164z" />
<glyph unicode="&#xda;" horiz-adv-x="1308" d="M0 680q0 119 86 299q76 160 166 268q-84 20 -129 21q-59 0 -109 -21l-2 70l66 20h1173l-84 -84q-49 -49 -49 -102v-803q0 -172 125 -205v-47l-84 -76q-57 -47 -90 -47q-55 0 -111 66q-49 57 -61 121q-41 -14 -156 -123q-86 -80 -176 -80q-109 0 -248 125 q-121 113 -213 274q-104 181 -104 324zM254 715q0 -170 94 -326q109 -182 266 -182q250 0 250 330v600l-37 120q-6 2 -94 9l-94 8q-11 1 -22 1q-158 0 -269 -198q-94 -167 -94 -362zM612 1520l219 227l64 -178l-240 -164z" />
<glyph unicode="&#xdb;" horiz-adv-x="1308" d="M0 680q0 119 86 299q76 160 166 268q-84 20 -129 21q-59 0 -109 -21l-2 70l66 20h1173l-84 -84q-49 -49 -49 -102v-803q0 -172 125 -205v-47l-84 -76q-57 -47 -90 -47q-55 0 -111 66q-49 57 -61 121q-41 -14 -156 -123q-86 -80 -176 -80q-109 0 -248 125 q-121 113 -213 274q-104 181 -104 324zM254 715q0 -170 94 -326q109 -182 266 -182q250 0 250 330v600l-37 120q-6 2 -94 9l-94 8q-11 1 -22 1q-158 0 -269 -198q-94 -167 -94 -362zM414 1522l221 227v-8l217 -221l-43 -115l-178 123l-174 -123z" />
<glyph unicode="&#xdc;" horiz-adv-x="1308" d="M0 680q0 119 86 299q76 160 166 268q-84 20 -129 21q-59 0 -109 -21l-2 70l66 20h1173l-84 -84q-49 -49 -49 -102v-803q0 -172 125 -205v-47l-84 -76q-57 -47 -90 -47q-55 0 -111 66q-49 57 -61 121q-41 -14 -156 -123q-86 -80 -176 -80q-109 0 -248 125 q-121 113 -213 274q-104 181 -104 324zM254 715q0 -170 94 -326q109 -182 266 -182q250 0 250 330v600l-37 120q-6 2 -94 9l-94 8q-11 1 -22 1q-158 0 -269 -198q-94 -167 -94 -362zM324 1573l159 149l117 -149l-127 -168zM668 1573l159 149l117 -149l-127 -168z" />
<glyph unicode="&#xdd;" horiz-adv-x="1298" d="M-6 1143q0 86 67 137q72 53 156 53q127 0 170 -61l100 -144l95 123q74 96 94 97q16 0 124.5 -55.5t174.5 -55.5q119 0 172 96h78v-47l-502 -1360q0 -115 156 -114q59 0 147 47q104 55 143 63q-18 -125 -137 -219t-248 -94q-94 0 -156.5 62.5t-62.5 156.5q0 37 47 184 l-120 377q-119 371 -226 572q-88 168 -155 167l-111 -45zM518 1028q53 -88 121 -301q70 -225 117 -305l248 620q-94 -31 -150 -30q-59 0 -158 35q-29 10 -84 36q-31 0 -94 -55zM551 1520l219 227l64 -178l-240 -164z" />
<glyph unicode="&#xdf;" horiz-adv-x="921" d="M90 1182q266 150 342 149q37 0 90 -71.5t53 -110.5q0 -14 -143 -113l-43 78q-4 8 -43 68h-18v-33l32 -229v-547q0 -45 -4 -373l-123 -2h-13q-28 0 -66 6v916q0 49 -33 135q-31 88 -31 127zM328 -47l149 104l141 -112q82 145 82 280q0 94 -51 154.5t-139 60.5 q-41 0 -84 -16l-12 14l295 318q-129 -8 -238 -8q-90 0 -111 2v6q20 64 37 166l172 -2q14 0 31 -1q98 0 268 11l-41 -146q-88 -72 -196 -186q84 -29 137 -66q113 -80 113 -233.5t-97 -321.5q-174 -86 -292 -159z" />
<glyph unicode="&#xe0;" horiz-adv-x="948" d="M10 391q0 182 137 320q41 43 168 143q137 113 162 117l199 -115l106 -53q78 -41 78 -68q0 -8 -34.5 -49t-37.5 -70l-14 -368q0 -23 8 -25l13 13q0 -29 45 -68q45 -41 49 -49l-166 -129q-133 72 -133 170l-35 14q-33 -33 -231 -174q-115 0 -220 141q-94 125 -94 250z M217 496q0 -90 62 -172q63 -94 149 -95q39 0 88 23q55 27 55 67v320q-23 25 -94 70q-72 49 -98 51q-55 0 -113 -107q-49 -87 -49 -157zM236 1184l241 -164l43 115l-221 227z" />
<glyph unicode="&#xe1;" horiz-adv-x="948" d="M10 391q0 182 137 320q41 43 168 143q137 113 162 117l199 -115l106 -53q78 -41 78 -68q0 -8 -34.5 -49t-37.5 -70l-14 -368q0 -23 8 -25l13 13q0 -29 45 -68q45 -41 49 -49l-166 -129q-133 72 -133 170l-35 14q-33 -33 -231 -174q-115 0 -220 141q-94 125 -94 250z M217 496q0 -90 62 -172q63 -94 149 -95q39 0 88 23q55 27 55 67v320q-23 25 -94 70q-72 49 -98 51q-55 0 -113 -107q-49 -87 -49 -157zM430 1135l219 227l64 -178l-242 -164z" />
<glyph unicode="&#xe2;" horiz-adv-x="948" d="M10 391q0 182 137 320q41 43 168 143q137 113 162 117l199 -115l106 -53q78 -41 78 -68q0 -8 -34.5 -49t-37.5 -70l-14 -368q0 -23 8 -25l13 13q0 -29 45 -68q45 -41 49 -49l-166 -129q-133 72 -133 170l-35 14q-33 -33 -231 -174q-115 0 -220 141q-94 125 -94 250z M217 496q0 -90 62 -172q63 -94 149 -95q39 0 88 23q55 27 55 67v320q-23 25 -94 70q-72 49 -98 51q-55 0 -113 -107q-49 -87 -49 -157zM250 1139l221 225v-6l217 -223l-43 -115l-178 123l-174 -121z" />
<glyph unicode="&#xe3;" horiz-adv-x="948" d="M10 391q0 182 137 320q41 43 168 143q137 113 162 117l199 -115l106 -53q78 -41 78 -68q0 -8 -34.5 -49t-37.5 -70l-14 -368q0 -23 8 -25l13 13q0 -29 45 -68q45 -41 49 -49l-166 -129q-133 72 -133 170l-35 14q-33 -33 -231 -174q-115 0 -220 141q-94 125 -94 250z M190 1063l37 41q88 100 148 100q23 0 45 -8l102 -45q72 -33 94.5 -33t67.5 37l27 21q4 -2 16 -13.5t23 -19.5l-35 -33q-27 -20 -56 -49q-49 -43 -81 -43q-39 0 -107 29l-55 24q-72 31 -90 31q-27 0 -43 -17l-31 -28l-21 -21q-10 11 -41 27zM217 496q0 -90 62 -172 q63 -94 149 -95q39 0 88 23q55 27 55 67v320q-23 25 -94 70q-72 49 -98 51q-55 0 -113 -107q-49 -87 -49 -157z" />
<glyph unicode="&#xe4;" horiz-adv-x="948" d="M10 391q0 182 137 320q41 43 168 143q137 113 162 117l199 -115l106 -53q78 -41 78 -68q0 -8 -34.5 -49t-37.5 -70l-14 -368q0 -23 8 -25l13 13q0 -29 45 -68q45 -41 49 -49l-166 -129q-133 72 -133 170l-35 14q-33 -33 -231 -174q-115 0 -220 141q-94 125 -94 250z M137 1188l160 149l117 -149l-127 -168zM217 496q0 -90 62 -172q63 -94 149 -95q39 0 88 23q55 27 55 67v320q-23 25 -94 70q-72 49 -98 51q-55 0 -113 -107q-49 -87 -49 -157zM481 1188l160 149l117 -149l-127 -168z" />
<glyph unicode="&#xe5;" horiz-adv-x="948" d="M10 391q0 182 137 320q41 43 168 143q137 113 162 117l199 -115l106 -53q78 -41 78 -68q0 -8 -34.5 -49t-37.5 -70l-14 -368q0 -23 8 -25l13 13q0 -29 45 -68q45 -41 49 -49l-166 -129q-133 72 -133 170l-35 14q-33 -33 -231 -174q-115 0 -220 141q-94 125 -94 250z M217 496q0 -90 62 -172q63 -94 149 -95q39 0 88 23q55 27 55 67v320q-23 25 -94 70q-72 49 -98 51q-55 0 -113 -107q-49 -87 -49 -157zM334 1149q80 80 141 190q164 -37 164 -153q0 -63 -51 -115q-49 -51 -111 -51q-66 0 -112 65q-17 27 -31 64zM414 1214q0 -10 53 -88 q29 -37 90 -36h23q1 11 1 21q0 38 -18 65q-23 25 -74 51q-25 12 -40 12q-35 0 -35 -25z" />
<glyph unicode="&#xe6;" horiz-adv-x="1269" d="M10 391q0 182 137 320q41 43 168 143q137 113 162 117l199 -115l106 -53q8 -4 19 -12l76 75q51 51 77 58q225 -152 250 -209l-375 -367q39 -76 101 -108q51 -27 147 -27l68 10q37 5 56 5q7 0 11 -1q-117 -244 -159 -243q-139 0 -242 71l-88 -65q-133 72 -133 170l-35 14 q-33 -33 -231 -174q-115 0 -220 141q-94 125 -94 250zM217 496q0 -90 62 -172q63 -94 149 -95q39 0 88 23q55 27 55 67v320q-23 25 -94 70q-72 49 -98 51q-55 0 -113 -107q-49 -87 -49 -157zM782 475q16 -37 37 -45l176 172q-14 29 -54 62.5t-64 35.5q-41 0 -70 -67 q-4 -8 -21 -53z" />
<glyph unicode="&#xe7;" horiz-adv-x="675" d="M2 279v368q0 16 168 135q168 121 201 125l118 -71q49 -29 111 -84q-94 -150 -119 -150q-23 0 -104 68q-90 72 -133 71q-18 0 -32.5 -18t-14.5 -37v-346q0 -66 52 -112t122 -46q113 0 215 97h22v-43q0 -92 -104 -168q-102 -78 -195 -78q-117 0 -213 86q-94 88 -94 203z M150 -205q84 55 96 66q35 33 73 88q14 -10 109 -66q-27 -51 -98.5 -91t-145.5 -46q-9 10 -34 49z" />
<glyph unicode="&#xe8;" horiz-adv-x="655" d="M16 432q0 135 41 207q33 57 136 160l71 71q49 49 78 58q225 -152 250 -211l-375 -365q37 -80 98 -110q53 -25 148 -25l69 8q61 6 68 6q-117 -244 -160 -243q-186 0 -307 127q-117 129 -117 317zM98 1184l242 -164l41 115l-219 227zM164 522q0 -68 43 -90l176 174 q-12 27 -52 59.5t-67 36.5q-43 0 -74 -69q-26 -56 -26 -111z" />
<glyph unicode="&#xe9;" horiz-adv-x="655" d="M16 432q0 135 41 207q33 57 136 160l71 71q49 49 78 58q225 -152 250 -211l-375 -365q37 -80 98 -110q53 -25 148 -25l69 8q61 6 68 6q-117 -244 -160 -243q-186 0 -307 127q-117 129 -117 317zM164 522q0 -68 43 -90l176 174q-12 27 -52 59.5t-67 36.5q-43 0 -74 -69 q-26 -56 -26 -111zM305 1135l219 227l64 -178l-240 -164z" />
<glyph unicode="&#xea;" horiz-adv-x="655" d="M16 432q0 135 41 207q33 57 136 160l71 71q49 49 78 58q225 -152 250 -211l-375 -365q37 -80 98 -110q53 -25 148 -25l69 8q61 6 68 6q-117 -244 -160 -243q-186 0 -307 127q-117 129 -117 317zM106 1137l218 227l4 -8l215 -221l-41 -115l-178 123l-177 -123zM164 522 q0 -68 43 -90l176 174q-12 27 -52 59.5t-67 36.5q-43 0 -74 -69q-26 -56 -26 -111z" />
<glyph unicode="&#xeb;" horiz-adv-x="655" d="M16 432q0 135 41 207q33 57 136 160l71 71q49 49 78 58q225 -152 250 -211l-375 -365q37 -80 98 -110q53 -25 148 -25l69 8q61 6 68 6q-117 -244 -160 -243q-186 0 -307 127q-117 129 -117 317zM27 1188l157 149l117 -149l-125 -168zM164 522q0 -68 43 -90l176 174 q-12 27 -52 59.5t-67 36.5q-43 0 -74 -69q-26 -56 -26 -111zM371 1188l157 149l117 -149l-125 -168z" />
<glyph unicode="&#xec;" horiz-adv-x="544" d="M-59 1184l237 -164l43 115l-219 227zM29 780l77 76q51 51 80 57q98 -61 140.5 -132.5t40.5 -182.5l-5 -197q-1 -27 0 -49q0 -93 13 -131q27 -88 133 -98v-31q-20 -16 -100 -63q-76 -43 -101 -47q-150 111 -149 157v496q0 47 -33 74l-64 36q-32 19 -32 35z" />
<glyph unicode="&#xed;" horiz-adv-x="544" d="M29 780l77 76q51 51 80 57q98 -61 140.5 -132.5t40.5 -182.5l-5 -197q-1 -27 0 -49q0 -93 13 -131q27 -88 133 -98v-31q-20 -16 -100 -63q-76 -43 -101 -47q-150 111 -149 157v496q0 47 -33 74l-64 36q-32 19 -32 35zM162 1135l219 227l63 -178l-239 -164z" />
<glyph unicode="&#xee;" horiz-adv-x="544" d="M-35 1139l215 225l4 -6l213 -223l-41 -115l-178 123l-174 -121zM29 780l77 76q51 51 80 57q98 -61 140.5 -132.5t40.5 -182.5l-5 -197q-1 -27 0 -49q0 -93 13 -131q27 -88 133 -98v-31q-20 -16 -100 -63q-76 -43 -101 -47q-150 111 -149 157v496q0 47 -33 74l-64 36 q-32 19 -32 35z" />
<glyph unicode="&#xef;" horiz-adv-x="544" d="M-115 1188l156 149l117 -149l-125 -168zM29 780l77 76q51 51 80 57q98 -61 140.5 -132.5t40.5 -182.5l-5 -197q-1 -27 0 -49q0 -93 13 -131q27 -88 133 -98v-31q-20 -16 -100 -63q-76 -43 -101 -47q-150 111 -149 157v496q0 47 -33 74l-64 36q-32 19 -32 35zM227 1188 l158 149l117 -149l-125 -168z" />
<glyph unicode="&#xf1;" horiz-adv-x="962" d="M-4 766v25l178 133q98 -45 141 -101l41 -57l246 166q143 -41 191 -82q72 -61 71 -186v-652q-20 -12 -49 -8l-84 2l-82 6v531q0 90 -24 127q-31 47 -117 47q-35 0 -98 -21q-68 -18 -68 -51v-645h-199v653q0 41 -57 74q-12 8 -90 39zM152 1065l36 41q88 100 148 100 q23 0 45 -8l102 -47q68 -33 95 -33q16 0 67 39l27 21q4 -2 9 -7.5t14.5 -13.5t15.5 -14l-35 -31q-4 -2 -58 -51q-47 -41 -79 -41q-39 0 -107 29l-55 24q-70 31 -90 31q-27 0 -43 -17q-6 -4 -31 -28l-20 -23q-4 4 -41 29z" />
<glyph unicode="&#xf2;" horiz-adv-x="847" d="M12 485q0 154 140 281q117 104 286 162q158 -47 256 -203q92 -147 92 -319q0 -123 -145 -275q-143 -150 -266 -149q-137 0 -256 186q-107 167 -107 317zM129 545q0 -115 117 -223q115 -106 233 -107q188 0 189 141q0 125 -115 234q-113 106 -242 106q-70 0 -123 -41 q-59 -42 -59 -110zM201 1184l239 -164l43 115l-219 227z" />
<glyph unicode="&#xf3;" horiz-adv-x="847" d="M12 485q0 154 140 281q117 104 286 162q158 -47 256 -203q92 -147 92 -319q0 -123 -145 -275q-143 -150 -266 -149q-137 0 -256 186q-107 167 -107 317zM129 545q0 -115 117 -223q115 -106 233 -107q188 0 189 141q0 125 -115 234q-113 106 -242 106q-70 0 -123 -41 q-59 -42 -59 -110zM395 1135l219 227l64 -178l-240 -164z" />
<glyph unicode="&#xf4;" horiz-adv-x="847" d="M12 485q0 154 140 281q117 104 286 162q158 -47 256 -203q92 -147 92 -319q0 -123 -145 -275q-143 -150 -266 -149q-137 0 -256 186q-107 167 -107 317zM129 545q0 -115 117 -223q115 -106 233 -107q188 0 189 141q0 125 -115 234q-113 106 -242 106q-70 0 -123 -41 q-59 -42 -59 -110zM193 1139l219 225l2 -6l215 -223l-43 -115l-176 123l-177 -121z" />
<glyph unicode="&#xf5;" horiz-adv-x="847" d="M12 485q0 154 140 281q117 104 286 162q158 -47 256 -203q92 -147 92 -319q0 -123 -145 -275q-143 -150 -266 -149q-137 0 -256 186q-107 167 -107 317zM129 545q0 -115 117 -223q115 -106 233 -107q188 0 189 141q0 125 -115 234q-113 106 -242 106q-70 0 -123 -41 q-59 -42 -59 -110zM152 1065l36 41q88 100 148 100q23 0 45 -8l102 -47q68 -33 95 -33q16 0 67 39l27 21q4 -2 9 -7.5t14.5 -13.5t15.5 -14l-35 -31q-4 -2 -58 -51q-47 -41 -79 -41q-39 0 -107 29l-55 24q-70 31 -90 31q-27 0 -43 -17q-6 -4 -31 -28l-20 -23q-4 4 -41 29z " />
<glyph unicode="&#xf6;" horiz-adv-x="847" d="M12 485q0 154 140 281q117 104 286 162q158 -47 256 -203q92 -147 92 -319q0 -123 -145 -275q-143 -150 -266 -149q-137 0 -256 186q-107 167 -107 317zM102 1188l158 149l117 -149l-127 -168zM129 545q0 -115 117 -223q115 -106 233 -107q188 0 189 141q0 125 -115 234 q-113 106 -242 106q-70 0 -123 -41q-59 -42 -59 -110zM446 1188l158 149l117 -149l-127 -168z" />
<glyph unicode="&#xf7;" d="M29 526v92h762v-92h-762zM332 864q0 78 80 78q31 0 53 -22.5t22 -55.5t-22.5 -55.5t-54.5 -22.5q-29 0 -53.5 23.5t-24.5 54.5zM332 279q0 31 20 53q29 25 58 24q78 0 77 -77q0 -31 -23.5 -54.5t-53.5 -23.5q-78 0 -78 78z" />
<glyph unicode="&#xf8;" horiz-adv-x="811" d="M47 420q0 76 19 198q74 47 321 222q119 -8 231 -90l80 120l41 -30l-86 -123q109 -104 109 -318q0 -123 -45 -249q-37 -18 -148 -80q-29 -18 -137 -76q-141 18 -227 67l-88 -120l-41 28l86 123q-115 99 -115 328zM219 479q0 -104 21 -147q2 -25 34 -80l236 342 q-84 90 -213 90q-41 0 -51 -2q-27 -109 -27 -203zM307 211q82 -86 236 -98q35 150 35 247q0 78 -17 138q-10 25 -18 51z" />
<glyph unicode="&#xf9;" horiz-adv-x="960" d="M-6 795q121 135 147 135q12 0 23 -10l22 -23q82 -63 101 -123q4 -16 4 -164v-282q0 -55 51 -95q53 -41 109 -40q70 0 159 71v633l103 23q51 10 102 10l-8 -670q0 -49 45 -88q47 -41 49 -51q0 -25 -149 -131q-51 0 -97 61q-35 47 -53 109q-25 -8 -141 -99 q-100 -72 -123 -71q-57 0 -156 80q-96 84 -96 137l-8 461q0 16 -41 63q-39 46 -43 64zM193 1184l239 -164l43 115l-219 227z" />
<glyph unicode="&#xfa;" horiz-adv-x="960" d="M-6 795q121 135 147 135q12 0 23 -10l22 -23q82 -63 101 -123q4 -16 4 -164v-282q0 -55 51 -95q53 -41 109 -40q70 0 159 71v633l103 23q51 10 102 10l-8 -670q0 -49 45 -88q47 -41 49 -51q0 -25 -149 -131q-51 0 -97 61q-35 47 -53 109q-25 -8 -141 -99 q-100 -72 -123 -71q-57 0 -156 80q-96 84 -96 137l-8 461q0 16 -41 63q-39 46 -43 64zM375 1135l219 227l65 -178l-241 -164z" />
<glyph unicode="&#xfb;" horiz-adv-x="960" d="M-6 795q121 135 147 135q12 0 23 -10l22 -23q82 -63 101 -123q4 -16 4 -164v-282q0 -55 51 -95q53 -41 109 -40q70 0 159 71v633l103 23q51 10 102 10l-8 -670q0 -49 45 -88q47 -41 49 -51q0 -25 -149 -131q-51 0 -97 61q-35 47 -53 109q-25 -8 -141 -99 q-100 -72 -123 -71q-57 0 -156 80q-96 84 -96 137l-8 461q0 16 -41 63q-39 46 -43 64zM197 1139l219 225l2 -6l215 -223l-41 -115l-178 123l-176 -121z" />
<glyph unicode="&#xfc;" horiz-adv-x="960" d="M-6 795q121 135 147 135q12 0 23 -10l22 -23q82 -63 101 -123q4 -16 4 -164v-282q0 -55 51 -95q53 -41 109 -40q70 0 159 71v633l103 23q51 10 102 10l-8 -670q0 -49 45 -88q47 -41 49 -51q0 -25 -149 -131q-51 0 -97 61q-35 47 -53 109q-25 -8 -141 -99 q-100 -72 -123 -71q-57 0 -156 80q-96 84 -96 137l-8 461q0 16 -41 63q-39 46 -43 64zM102 1188l158 149l117 -149l-127 -168zM446 1188l158 149l117 -149l-127 -168z" />
<glyph unicode="&#xfd;" horiz-adv-x="899" d="M0 881v24q33 12 82 13q158 0 192 -15q18 -10 37 -59q20 -61 49 -86q162 180 193 180q119 0 205 -104q80 -98 80 -222q0 -125 -142 -329q-90 -129 -272 -334q-186 -213 -274 -336h-138l-12 8v6l385 439q-39 90 -106 286q-76 217 -109 281q-72 146 -170 248zM305 1135 l219 227l64 -178l-240 -164zM393 676l166 -443q43 31 80 117t37 144q0 86 -41 145q-45 68 -131 68q-66 0 -111 -31z" />
<glyph unicode="&#xff;" horiz-adv-x="899" d="M0 881v24q33 12 82 13q158 0 192 -15q18 -10 37 -59q20 -61 49 -86q162 180 193 180q119 0 205 -104q80 -98 80 -222q0 -125 -142 -329q-90 -129 -272 -334q-186 -213 -274 -336h-138l-12 8v6l385 439q-39 90 -106 286q-76 217 -109 281q-72 146 -170 248zM102 1188 l158 149l117 -149l-127 -168zM393 676l166 -443q43 31 80 117t37 144q0 86 -41 145q-45 68 -131 68q-66 0 -111 -31zM446 1188l158 149l117 -149l-127 -168z" />
<glyph unicode="&#x152;" horiz-adv-x="2269" d="M0 674q0 215 209 440t424 225q229 0 422 -254q10 -12 39 -55q242 295 501 295q106 0 211 -39q53 -20 156 -76q49 -29 94 -41l109 48v-62q-102 -96 -269 -201q-117 250 -292 250q-186 0 -287 -153q-90 -133 -90 -326q283 41 473 41q90 0 239 8q125 6 240 6l-158 -174 q-105 -113 -171 -113q-4 0 -9 1l-282 45q-225 35 -299 34q-27 0 -31 -14q-2 -6 -2 -8v-88q0 -139 129 -262t270 -123q115 0 211 102q96 106 96 221h250v-45q-10 -23 -57 -90q-201 -293 -531 -293q-262 0 -462 195q-53 53 -76 86q-25 -25 -45 -47q-219 -225 -396 -225 q-229 0 -426 233q-190 223 -190 459zM172 801q0 -219 182 -395q180 -174 406 -175q145 0 244 111q-70 131 -70 291q0 78 24 158q-51 66 -86 102q-188 195 -385 194q-137 0 -223 -73q-92 -76 -92 -213z" />
<glyph unicode="&#x153;" horiz-adv-x="1275" d="M12 485q0 154 140 281q117 104 286 162q172 -51 275 -236q47 57 94 103l74 71q57 55 77 58q225 -152 250 -209l-377 -367q70 -135 248 -135l70 10q37 5 56 5q7 0 12 -1q-117 -244 -160 -243q-184 0 -305 127q-39 43 -60 79q-51 -72 -141 -139q-100 -70 -176 -69 q-137 0 -256 186q-107 167 -107 317zM129 545q0 -115 117 -223q115 -106 233 -107q135 0 172 74q-18 63 -18 141q0 43 2 55q-27 51 -82 105q-113 106 -242 106q-70 0 -123 -41q-59 -42 -59 -110zM780 520q0 -70 43 -90l176 172q-10 23 -53 60q-45 35 -65 38q-43 0 -74 -71 q-27 -56 -27 -109z" />
<glyph unicode="&#x178;" horiz-adv-x="1298" d="M-6 1143q0 86 67 137q72 53 156 53q127 0 170 -61l100 -144l95 123q74 96 94 97q16 0 124.5 -55.5t174.5 -55.5q119 0 172 96h78v-47l-502 -1360q0 -115 156 -114q59 0 147 47q104 55 143 63q-18 -125 -137 -219t-248 -94q-94 0 -156.5 62.5t-62.5 156.5q0 37 47 184 l-120 377q-119 371 -226 572q-88 168 -155 167l-111 -45zM324 1573l159 149l117 -149l-127 -168zM518 1028q53 -88 121 -301q70 -225 117 -305l248 620q-94 -31 -150 -30q-59 0 -158 35q-29 10 -84 36q-31 0 -94 -55zM668 1573l159 149l117 -149l-127 -168z" />
<glyph unicode="&#x2c6;" horiz-adv-x="655" d="M152 1137l219 227l2 -8l215 -221l-41 -115l-178 123l-176 -123z" />
<glyph unicode="&#x2dc;" d="M129 946l39 41q57 61 76 74q33 27 71 26q29 0 43 -8l52 -22l53 -23q74 -33 92 -33q27 0 70 37l26 23q23 -23 39 -35l-37 -31l-53 -51q-47 -43 -82 -43q-39 0 -106 29l-56 24q-72 33 -90 33q-27 0 -43 -16l-30 -31l-23 -20q-8 8 -41 26z" />
<glyph unicode="&#x2013;" horiz-adv-x="968" d="M2 397q-2 -12 11.5 -23.5t25.5 -11.5q4 0 6 3h6q55 57 117 57h479q76 0 107 -8l57 -15l78 209q2 3 2 7q0 7 -9 12q-13 8 -28 8q-12 0 -18 -8q-55 -43 -111 -43h-475q-88 0 -168 26z" />
<glyph unicode="&#x2014;" horiz-adv-x="1232" d="M2 397q-2 -12 11.5 -23.5t25.5 -11.5q4 0 6 3h6q55 57 117 57h745q76 0 107 -8l57 -15l78 209q1 4 1 8q0 8 -6 13q-9 6 -32 6q-10 0 -16 -8q-57 -43 -111 -43h-741q-88 0 -168 26z" />
<glyph unicode="&#x2018;" horiz-adv-x="329" d="M-6 1311h182l74 -283h-123z" />
<glyph unicode="&#x2019;" horiz-adv-x="344" d="M6 1028l74 283h186l-137 -283h-123z" />
<glyph unicode="&#x201a;" horiz-adv-x="344" d="M6 -158l74 281h186l-137 -281h-123z" />
<glyph unicode="&#x201c;" horiz-adv-x="618" d="M-6 1311h182l74 -283h-123zM279 1311h186l74 -283h-123z" />
<glyph unicode="&#x201d;" horiz-adv-x="634" d="M6 1028l74 283h186l-137 -283h-123zM295 1028l74 283h186l-137 -283h-123z" />
<glyph unicode="&#x201e;" horiz-adv-x="634" d="M6 -158l74 281h186l-137 -281h-123zM295 -158l74 281h186l-137 -281h-123z" />
<glyph unicode="&#x2022;" horiz-adv-x="1093" d="M322 555q0 98 65.5 162.5t163.5 64.5q92 0 158 -67q66 -70 65 -160q0 -96 -65.5 -161.5t-161.5 -65.5t-160.5 65.5t-64.5 161.5z" />
<glyph unicode="&#x2026;" horiz-adv-x="1626" d="M27 211l198 186l146 -186l-160 -211zM569 211l197 186l147 -186l-159 -211zM1110 211l199 186l145 -186l-158 -211z" />
<glyph unicode="&#x2039;" horiz-adv-x="405" d="M33 397l176 170h164l-183 -170l175 -170h-160z" />
<glyph unicode="&#x203a;" horiz-adv-x="405" d="M33 567h160l180 -170l-174 -170h-162l176 170z" />
<glyph unicode="&#x20ac;" horiz-adv-x="1593" d="M29 580l69 165h154q-2 23 -2 41.5t2 40.5h-223l69 166h178q57 256 242 424q195 176 453 176q336 0 583 -252l-69 -167q-217 254 -514 253q-180 0 -329.5 -126.5t-195.5 -307.5h963l-70 -166h-921v-82h887l-70 -165h-786q57 -184 190 -306q143 -129 332 -129 q299 0 528 271v-240q-238 -195 -528 -194q-256 0 -451 176q-178 160 -244 422h-247z" />
<glyph unicode="&#x2122;" horiz-adv-x="1593" d="M0 922q102 86 145 176q41 0 80 -2q47 -2 115 -2l195 -2q98 0 155 10q-6 -55 -8 -115h-57q-131 0 -215 -65q-94 -74 -95 -197q0 -147 179 -180q41 -8 86 -8q47 0 110 28l15 -14q-61 -63 -109 -121h-21q-66 0 -182 21q-53 10 -100 45q-102 78 -103 215q0 162 175 272h-29 q-143 0 -221 -6l86 -88q-12 -8 -82 -82q-53 58 -119 115zM766 944q63 59 76 76q29 33 63 82q221 0 275 -98q33 43 61 102q131 -27 281 -31q0 -31 -17 -276q-2 -18 -2 -121v-72q0 -49 25 -61q8 -8 22 -8q10 0 19 6l12 -23q-57 -41 -119 -98q-74 51 -82 86q-6 20 -6 78 q0 188 6 368l-186 17q12 -43 12 -199v-170v-37q-2 -14 -2 -24q0 -61 6 -105q-16 0 -33.5 1t-25.5 2t-10 1t-10.5 -1t-26 -2t-33.5 -1q6 35 6 264q0 172 -14 222q-16 59 -117 59q-31 0 -39 -2q-2 -6 -2 -23q0 -424 10 -520q-16 0 -33.5 1t-26.5 2t-11 1t-10.5 -1t-25.5 -2 t-34 -1q6 88 6 232q0 147 -14 276z" />
<glyph unicode="&#xe000;" horiz-adv-x="930" d="M0 930h930v-930h-930v930z" />
<glyph unicode="&#xfb01;" horiz-adv-x="985" d="M10 760v135h80q63 0 64 25q0 45 -33 131q-31 88 -31 131q266 150 342 149q37 0 90 -71q31 -41 45 -74q8 37 25 53l82 37l127 72h24l4 -33l-2 -4q0 -2 -1 -8.5t-1 -12.5l2 -65q2 -39 -49 -60q-29 -6 -84 -22l-131 -37l-4 18v6q-37 -33 -127 -94l-43 78q-4 8 -43 68h-18 v-33l32 -229q4 -23 43 -21l52 2h88l32 17h27l23 -5q98 -61 140 -132.5t40 -182.5l-4 -197q-1 -27 -1 -49q0 -93 13 -131q27 -88 133 -98v-31q-20 -18 -98 -63q-86 -43 -103 -45q-150 106 -149 155v496q0 47 -33 74l-63 36l-31 25l-29 4q-45 0 -80 -22v-379q0 -12 -1 -56.5 t-2 -134.5t-1 -182h-123q-31 0 -79 4v756h-144z" />
<glyph unicode="&#xfb02;" horiz-adv-x="970" d="M10 760v135h80q63 0 64 25q0 45 -33 131q-31 88 -31 131q266 150 342 149q41 0 103 -90l110 64q97 55 131 55q6 0 10 -2v-1026q0 -84 29 -131q14 -14 57 -51q29 -23 29 -48q0 -23 -158 -106q-166 131 -165 162v614q-41 -6 -74 -6l-29 4l-35 4q-45 0 -80 -22v-379 q0 -12 -1 -56.5t-2 -134.5t-1 -182h-123q-31 0 -79 4v756h-144zM328 1149l32 -229q4 -21 37 -21h6l52 2h123v100q0 66 -27 121q-20 -16 -119 -86l-43 78q-4 8 -43 68h-18v-33z" />
<glyph unicode="&#xfb03;" horiz-adv-x="1843" d="M10 760v135h80q63 0 64 25q0 49 -33 135q-31 88 -31 127q266 150 342 149q37 0 90 -71.5t53 -110.5q0 -14 -143 -113l-43 78q-4 8 -43 68h-18v-33l32 -229q4 -23 43 -21l52 2h88v-127q-16 -8 -39 -8l-29 4l-35 4q-45 0 -80 -22v-379q0 -45 -4 -373l-123 -2h-13 q-28 0 -66 6v756h-144zM659 760v135h80q63 0 64 25q0 49 -33 135q-31 88 -31 127q266 150 342 149q37 0 90.5 -71.5t53.5 -110.5q0 -14 -144 -113l-43 78q-4 8 -43 68h-18v-33l33 -229q4 -23 43 -21l51 2h88v-127q-16 -8 -39 -8l-29 4l-34 4q-45 0 -80 -22v-379 q0 -45 -4 -373l-123 -2h-13q-28 0 -67 6v756h-144zM1327 780l78 76q51 51 80 57q98 -61 140 -132.5t40 -182.5l-4 -197q-1 -27 -1 -49q0 -93 13 -131q27 -88 133 -98v-31q-20 -16 -100 -63q-76 -43 -100 -47q-150 111 -150 157v496q0 47 -33 74l-63 36q-33 19 -33 35z M1419 1124l4 37q6 59 29 78l82 37l127 72h25l4 -33q0 -4 -4 -25l2 -65q4 -37 -50 -60q-4 -2 -84 -22l-131 -37z" />
<glyph unicode="&#xfb04;" horiz-adv-x="1748" d="M10 760v135h80q63 0 64 25q0 49 -33 135q-31 88 -31 127q266 150 342 149q37 0 90 -71.5t53 -110.5q0 -14 -143 -113l-43 78q-4 8 -43 68h-18v-33l32 -229q4 -23 43 -21l52 2h88v-127q-16 -8 -39 -8l-29 4l-35 4q-45 0 -80 -22v-379q0 -45 -4 -373l-123 -2h-13 q-28 0 -66 6v756h-144zM659 760v135h80q63 0 64 25q0 49 -33 135q-31 88 -31 127q266 150 342 149q37 0 90.5 -71.5t53.5 -110.5q0 -14 -144 -113l-43 78q-4 8 -43 68h-18v-33l33 -229q4 -23 43 -21l51 2h88v-127q-16 -8 -39 -8l-29 4l-34 4q-45 0 -80 -22v-379 q0 -45 -4 -373l-123 -2h-13q-28 0 -67 6v756h-144zM1288 1198v25l144 82q98 55 131 55q6 0 10 -2v-1026q0 -84 29 -131q29 -29 57.5 -51.5t28.5 -47t-158 -108.5q-166 133 -166 164v843q0 109 -76 197z" />
</font>
</defs>
</svg>
